<svg width="171" height="72" viewBox="0 0 171 72" fill="none" xmlns="http://www.w3.org/2000/svg">
<path d="M69.0291 13.534C64.5891 5.85399 55.2891 -0.796015 50.2391 2.11399C45.1891 5.03399 46.2991 16.404 50.7391 24.094C53.5891 29.034 57.1291 31.244 60.6291 31.414C62.5991 31.514 64.4191 32.484 65.409 34.194L85.8591 69.604C86.5591 70.824 88.0291 71.464 89.3591 71.004C91.1491 70.384 91.8491 68.344 90.9491 66.794L70.4491 31.284C69.4591 29.574 69.5291 27.504 70.4291 25.754C72.0291 22.644 71.8791 18.484 69.0291 13.534Z" fill="#06C167"/>
<path d="M50.9283 15.7842C51.1683 16.6242 51.5583 17.4242 51.9483 18.2042C52.3283 18.9942 52.7483 19.7642 53.1883 20.5142C54.0683 22.0142 55.0383 23.4642 56.1983 24.7442C56.7683 25.3942 57.3883 25.9842 58.0683 26.4942C58.7383 27.0142 59.4783 27.4442 60.2683 27.7542C61.8483 28.3942 63.6483 28.3142 65.3183 27.7242C64.5383 28.1442 63.6783 28.4242 62.7883 28.5442C61.8883 28.6542 60.9583 28.5542 60.0883 28.2742C58.3383 27.7142 56.8583 26.5442 55.6683 25.2142C54.4683 23.8742 53.4983 22.3642 52.6983 20.7742C52.2983 19.9842 51.9383 19.1642 51.6283 18.3342C51.4783 17.9142 51.3383 17.4942 51.2083 17.0742C51.0883 16.6542 50.9583 16.2242 50.9283 15.7842Z" fill="#06C167"/>
<path d="M102.679 6.85366L95.3293 19.5837L94.0293 18.8337L101.379 6.10366C101.679 5.58366 101.499 4.91366 100.979 4.61366C100.459 4.31366 99.7893 4.49366 99.4893 5.01366L92.1393 17.7437L90.8393 16.9937L98.1893 4.26366C98.4893 3.74366 98.3093 3.07366 97.7893 2.77366C97.2693 2.47366 96.5993 2.65366 96.2993 3.17366L88.9493 15.9037L87.6493 15.1537L94.9993 2.42366C95.2993 1.90366 95.1193 1.23366 94.5993 0.933657L94.3693 0.793657C93.8493 0.493657 93.1793 0.673657 92.8793 1.19366L80.7393 22.2837C79.7693 23.9537 79.5893 25.8637 80.0793 27.5837C80.5293 29.1937 80.3493 30.9137 79.5093 32.3637L59.2893 67.3937C58.5893 68.6137 58.7693 70.2037 59.8293 71.1237C61.2593 72.3637 63.3793 71.9537 64.2693 70.3937L84.5393 35.2837C85.3793 33.8337 86.7793 32.8137 88.3993 32.4037C90.1293 31.9637 91.6993 30.8537 92.6593 29.1837L104.829 8.10366C105.129 7.58366 104.949 6.91366 104.429 6.61366L104.159 6.46366C103.649 6.15366 102.979 6.33366 102.679 6.85366Z" fill="#06C167"/>
<path d="M83.0694 28.0239C82.5594 27.1139 82.2294 26.1039 82.1194 25.0339C82.0594 24.4939 82.0994 23.9439 82.2394 23.3939C82.2694 23.2539 82.3194 23.1239 82.3794 22.9939C82.4394 22.8639 82.4894 22.7239 82.5794 22.6039C82.6594 22.4839 82.7494 22.3539 82.8294 22.2539L83.0594 21.9539C83.6794 21.1539 84.2694 20.3139 84.8794 19.4839C85.4794 18.6539 86.0894 17.8139 86.7394 17.0039C86.3394 17.9639 85.8694 18.8939 85.3494 19.7839C84.8294 20.6839 84.2694 21.5539 83.6294 22.3839L83.3794 22.6939C83.2994 22.7939 83.2494 22.8739 83.1794 22.9739C83.0594 23.1639 82.9594 23.3639 82.8894 23.5839C82.7394 24.0239 82.6794 24.5139 82.6694 25.0039C82.6694 26.0039 82.8394 27.0139 83.0694 28.0239Z" fill="#06C167"/>
<path d="M1.23889 44.8136V30.6836H4.30889C5.35889 30.6836 6.18889 30.8436 6.79889 31.1636C7.40889 31.4836 7.84889 31.9636 8.10889 32.6036C8.36889 33.2436 8.49889 34.0436 8.49889 34.9936V40.1936C8.49889 41.1936 8.36889 42.0336 8.10889 42.7236C7.84889 43.4136 7.41889 43.9336 6.83889 44.2836C6.24889 44.6436 5.45889 44.8136 4.47889 44.8136H1.23889ZM3.20889 43.4036H4.32889C5.04889 43.4036 5.55889 43.2636 5.86889 42.9836C6.16889 42.7036 6.35889 42.2936 6.41889 41.7636C6.47889 41.2336 6.51889 40.5836 6.51889 39.8236V35.2336C6.51889 34.5036 6.46889 33.9036 6.37889 33.4536C6.28889 33.0036 6.07889 32.6636 5.76889 32.4536C5.45889 32.2436 4.95889 32.1436 4.28889 32.1436H3.20889V43.4036Z" fill="#FF441F"/>
<path d="M11.4089 44.8136L14.4089 30.6836H16.3089L19.3289 44.8136H17.4589L16.8089 41.2536H13.9289L13.2489 44.8136H11.4089ZM14.1989 39.8436H16.5489L15.3589 33.4736L14.1989 39.8436Z" fill="#FF441F"/>
<path d="M22.608 44.8136V30.6836H24.548V44.8136H22.608Z" fill="#FF441F"/>
<path d="M28.5787 44.8136V30.6836H30.5487V43.4036H34.1587V44.8136H28.5787Z" fill="#FF441F"/>
<path d="M38.9198 44.8136V39.8236L35.8698 30.6836H37.6998L39.8598 37.5036L41.9898 30.6836H43.8398L40.7998 39.8236V44.8136H38.9198Z" fill="#FF441F"/>
<path d="M96.9596 46.3937V32.2637H100.03C101.08 32.2637 101.91 32.4237 102.52 32.7437C103.13 33.0637 103.57 33.5437 103.83 34.1837C104.09 34.8237 104.22 35.6237 104.22 36.5737V41.7737C104.22 42.7737 104.09 43.6137 103.83 44.3037C103.57 44.9937 103.14 45.5137 102.56 45.8637C101.97 46.2237 101.18 46.3937 100.2 46.3937H96.9596ZM98.9296 44.9837H100.05C100.77 44.9837 101.28 44.8437 101.59 44.5637C101.89 44.2837 102.08 43.8737 102.14 43.3437C102.2 42.8137 102.24 42.1637 102.24 41.4037V36.8137C102.24 36.0837 102.19 35.4837 102.1 35.0337C102.01 34.5837 101.8 34.2437 101.49 34.0337C101.18 33.8237 100.68 33.7237 100.01 33.7237H98.9496V44.9837H98.9296Z" fill="#FF441F"/>
<path d="M107.889 46.3937V32.2637H113.369V33.7337H109.859V38.4037H112.699V39.8037H109.859V44.9837H113.399V46.3937H107.889Z" fill="#FF441F"/>
<path d="M116.739 46.3937V32.2637H118.709V44.9837H122.319V46.3937H116.739Z" fill="#FF441F"/>
<path d="M125.51 46.3937V32.2637H127.45V46.3937H125.51Z" fill="#FF441F"/>
<path d="M133.94 46.3937L130.78 32.2637H132.63L134.86 42.6837L136.99 32.2637H138.79L135.67 46.3937H133.94Z" fill="#FF441F"/>
<path d="M142.03 46.3937V32.2637H147.51V33.7337H144V38.4037H146.84V39.8037H144V44.9837H147.54V46.3937H142.03Z" fill="#FF441F"/>
<path d="M150.88 46.3937V32.2637H153.72C154.66 32.2637 155.44 32.3837 156.06 32.6437C156.68 32.8937 157.13 33.2937 157.43 33.8437C157.73 34.3937 157.88 35.1237 157.88 36.0137C157.88 36.5637 157.82 37.0537 157.71 37.5037C157.59 37.9537 157.41 38.3337 157.15 38.6337C156.89 38.9437 156.56 39.1637 156.14 39.3037L158.15 46.3837H156.25L154.4 39.7537H152.86V46.3837H150.88V46.3937ZM152.85 38.3537H153.6C154.16 38.3537 154.61 38.2837 154.96 38.1437C155.31 38.0037 155.56 37.7637 155.73 37.4337C155.89 37.0937 155.97 36.6237 155.97 36.0237C155.97 35.1937 155.82 34.6037 155.52 34.2337C155.22 33.8637 154.62 33.6837 153.72 33.6837H152.85V38.3537Z" fill="#FF441F"/>
<path d="M163.84 46.3937V41.4037L160.79 32.2637H162.62L164.78 39.0837L166.91 32.2637H168.76L165.72 41.4037V46.3937H163.84Z" fill="#FF441F"/>
<path d="M120.809 67.1437C120.419 66.8437 120.229 66.4437 120.229 65.9537C120.229 65.8537 120.229 65.7837 120.239 65.7437H121.099C121.079 66.0537 121.179 66.3237 121.389 66.5437C121.599 66.7637 121.919 66.8837 122.359 66.8837C122.789 66.8837 123.139 66.7837 123.389 66.5837C123.649 66.3837 123.769 66.1037 123.769 65.7537C123.769 65.5337 123.709 65.3537 123.579 65.2037C123.459 65.0537 123.299 64.9337 123.119 64.8337C122.939 64.7337 122.689 64.6237 122.379 64.5037C121.999 64.3537 121.689 64.2037 121.459 64.0737C121.229 63.9437 121.029 63.7537 120.869 63.5237C120.709 63.2937 120.639 63.0037 120.649 62.6537C120.649 62.2837 120.749 61.9537 120.949 61.6637C121.149 61.3737 121.419 61.1537 121.769 60.9937C122.119 60.8337 122.519 60.7637 122.959 60.7637C123.389 60.7637 123.769 60.8337 124.089 60.9837C124.409 61.1337 124.639 61.3337 124.799 61.5937C124.959 61.8537 125.029 62.1537 125.009 62.4737H124.099C124.109 62.3037 124.079 62.1437 123.989 61.9937C123.899 61.8437 123.769 61.7137 123.589 61.6237C123.409 61.5237 123.179 61.4837 122.909 61.4837C122.489 61.4837 122.159 61.5837 121.909 61.7737C121.659 61.9637 121.529 62.2337 121.529 62.5737C121.529 62.7737 121.589 62.9437 121.709 63.0837C121.829 63.2237 121.979 63.3537 122.159 63.4437C122.339 63.5437 122.579 63.6637 122.899 63.7937C123.279 63.9537 123.589 64.1037 123.819 64.2437C124.059 64.3837 124.259 64.5637 124.429 64.7937C124.599 65.0237 124.679 65.3137 124.679 65.6537C124.679 66.0237 124.579 66.3537 124.389 66.6437C124.199 66.9337 123.919 67.1637 123.569 67.3337C123.209 67.5037 122.799 67.5837 122.319 67.5837C121.699 67.5937 121.189 67.4437 120.809 67.1437Z" fill="#FF441F"/>
<path d="M129.46 61.5337L129.06 63.8237H131.48L131.36 64.4938H128.94L128.52 66.8438H131.24L131.12 67.5338H127.53L128.72 60.8438H132.3L132.18 61.5337H129.46Z" fill="#FF441F"/>
<path d="M139.19 61.2835C139.53 61.5735 139.7 61.9535 139.7 62.4335C139.7 62.5135 139.69 62.6435 139.66 62.8135C139.58 63.2735 139.37 63.6835 139.05 64.0335C138.72 64.3835 138.29 64.6135 137.74 64.7335L138.92 67.5335H137.88L136.77 64.8035H135.73L135.24 67.5335H134.37L135.56 60.8535H137.71C138.35 60.8535 138.85 60.9935 139.19 61.2835ZM138.79 62.4935C138.79 62.1835 138.69 61.9535 138.49 61.7835C138.29 61.6135 137.98 61.5335 137.57 61.5335H136.3L135.85 64.0935H137.13C137.6 64.0935 137.98 63.9735 138.25 63.7435C138.52 63.5135 138.7 63.2035 138.77 62.8135C138.78 62.6935 138.79 62.5935 138.79 62.4935Z" fill="#FF441F"/>
<path d="M143.689 60.8535L144.749 66.5935L147.859 60.8535H148.799L145.089 67.5335H144.079L142.739 60.8535H143.689Z" fill="#FF441F"/>
<path d="M152.549 60.8535L151.359 67.5335H150.489L151.679 60.8535H152.549Z" fill="#FF441F"/>
<path d="M155.779 62.4237C156.169 61.9037 156.639 61.4937 157.199 61.2037C157.759 60.9137 158.339 60.7637 158.959 60.7637C159.689 60.7637 160.289 60.9437 160.779 61.2937C161.259 61.6437 161.569 62.1437 161.709 62.7837H160.669C160.559 62.3937 160.339 62.0937 160.029 61.8737C159.719 61.6637 159.319 61.5537 158.829 61.5537C158.359 61.5537 157.929 61.6637 157.519 61.8737C157.109 62.0837 156.769 62.3937 156.489 62.7937C156.209 63.1937 156.019 63.6537 155.929 64.1737C155.899 64.3437 155.879 64.5337 155.879 64.7437C155.879 65.3737 156.059 65.8637 156.429 66.2337C156.799 66.6037 157.289 66.7837 157.899 66.7837C158.389 66.7837 158.819 66.6837 159.209 66.4637C159.599 66.2437 159.919 65.9537 160.169 65.5637H161.209C160.849 66.2037 160.359 66.6937 159.759 67.0437C159.159 67.3937 158.489 67.5637 157.759 67.5637C157.219 67.5637 156.729 67.4537 156.309 67.2237C155.889 66.9937 155.559 66.6737 155.319 66.2637C155.079 65.8537 154.969 65.3737 154.969 64.8437C154.969 64.6237 154.989 64.3937 155.029 64.1637C155.139 63.5337 155.389 62.9437 155.779 62.4237Z" fill="#FF441F"/>
<path d="M166.009 61.5337L165.609 63.8237H168.029L167.909 64.4938H165.489L165.069 66.8438H167.789L167.669 67.5338H164.079L165.269 60.8438H168.849L168.729 61.5337H166.009Z" fill="#FF441F"/>
<path d="M53.1398 50.9834H0.199829V52.7334H53.1398V50.9834Z" fill="#FF441F"/>
<path d="M170.46 50.9834H92.8795V52.7334H170.46V50.9834Z" fill="#FF441F"/>
<path d="M77.4507 57.104C77.2207 57.104 76.9907 56.984 76.8607 56.764L65.9807 38.164C65.7907 37.844 65.9007 37.424 66.2207 37.234C66.5407 37.044 66.9607 37.154 67.1507 37.474L78.0407 56.074C78.2307 56.394 78.1207 56.814 77.8007 57.004C77.6907 57.074 77.5707 57.104 77.4507 57.104Z" fill="white"/>
<path d="M82.5993 51.4741C82.3693 51.4741 82.1393 51.3541 82.0093 51.1341L71.1193 32.5341C70.9293 32.2141 71.0393 31.7941 71.3593 31.6041C71.6793 31.4141 72.0993 31.5241 72.2893 31.8441L83.1793 50.4441C83.3693 50.7641 83.2593 51.1841 82.9393 51.3741C82.8393 51.4441 82.7193 51.4741 82.5993 51.4741Z" fill="white"/>
</svg>
