<svg width="227" height="56" viewBox="0 0 227 56" fill="none" xmlns="http://www.w3.org/2000/svg">
<path d="M76.8185 48.8688C76.8185 28.2588 60.1085 11.5488 39.4985 11.5488C18.8885 11.5488 2.18848 28.2588 2.18848 48.8688H76.8185Z" fill="#FF441F"/>
<path d="M44.7823 8.01707C45.4702 5.10391 43.6662 2.18469 40.7531 1.49681C37.8399 0.808929 34.9207 2.61288 34.2328 5.52604C33.5449 8.4392 35.3489 11.3584 38.262 12.0463C41.1752 12.7342 44.0944 10.9302 44.7823 8.01707Z" fill="#FF441F"/>
<path d="M8.56738 41.5386C8.75738 38.2786 9.79738 35.0886 11.2374 32.1186C12.6974 29.1486 14.6674 26.4186 17.0474 24.0786C19.4174 21.7286 22.2174 19.8286 25.2274 18.4386C28.2474 17.0886 31.4674 16.2186 34.7174 16.0186C31.7074 17.2586 28.8374 18.5886 26.1674 20.2086C23.5074 21.8386 21.0374 23.7286 18.8374 25.8886C16.6374 28.0486 14.6774 30.4686 12.9774 33.0986C12.1274 34.4086 11.3174 35.7586 10.5974 37.1786C9.84738 38.5786 9.18738 40.0286 8.56738 41.5386Z" fill="white"/>
<path d="M85.5578 26.6484C85.9378 26.6484 87.1178 26.9084 89.0878 27.4384C89.5378 23.5384 90.8178 19.2984 92.9078 14.7284C93.6478 13.0584 94.5278 12.2284 95.5478 12.2284C95.7378 12.2284 95.9278 12.4284 96.0978 12.8384C96.2778 13.2384 96.3678 13.7384 96.3678 14.3384C96.3678 15.0484 95.9878 17.0184 95.2478 20.2284C94.4978 23.4384 94.0078 26.2384 93.7678 28.6184C95.3378 28.9784 96.7278 29.1584 97.9278 29.1584C99.1278 29.1584 100.228 28.8384 101.228 28.2084C102.228 27.5784 103.088 26.7584 103.798 25.7584C105.278 23.6384 106.008 21.0984 106.008 18.1184C105.988 12.6184 103.798 9.8684 99.4378 9.8684C97.8878 9.8884 95.1578 10.5784 91.2278 11.9384C90.4678 12.1984 89.7978 12.3284 89.2278 12.3284C88.6578 12.3284 88.3678 12.1584 88.3678 11.8284C88.3678 11.3784 88.6978 10.8384 89.3678 10.2184C90.0378 9.5984 90.8878 9.0084 91.9378 8.4284C94.5078 7.0484 97.0078 6.3584 99.4378 6.3584C102.768 6.3584 105.508 7.2484 107.648 9.0384C110.168 11.1584 111.418 14.3684 111.398 18.6784C111.398 20.5084 111.108 22.3184 110.538 24.1084C109.968 25.8984 109.098 27.4784 107.928 28.8784C106.758 30.2684 105.288 31.3984 103.498 32.2484C101.708 33.1084 99.6078 33.5384 97.1778 33.5384C96.1978 33.5384 94.9678 33.3284 93.4678 32.8984C93.2978 33.3484 92.8878 33.5784 92.2178 33.5784C90.9778 33.5784 90.1378 33.3684 89.6978 32.9584C89.2578 32.5484 88.9978 31.8584 88.9278 30.9084C87.7878 30.2684 86.8378 29.5984 86.0878 28.9084C85.3378 28.2184 84.9678 27.6084 84.9678 27.0884C84.9878 26.7884 85.1778 26.6484 85.5578 26.6484Z" fill="#FF441F"/>
<path d="M121.328 29.3584C123.188 29.3584 124.978 28.6184 126.718 27.1484C127.358 26.5984 127.888 26.0984 128.288 25.6284C128.688 25.1684 128.998 24.9284 129.218 24.9284C129.548 24.9284 129.718 25.2584 129.718 25.9284C129.718 26.5984 129.538 27.3384 129.178 28.1584C128.818 28.9784 128.228 29.7784 127.388 30.5684C125.338 32.4984 122.538 33.4584 118.958 33.4584C116.128 33.4584 114.198 32.4384 113.178 30.3884C112.818 29.6784 112.638 28.6484 112.638 27.3184C112.638 25.9884 112.898 24.5984 113.428 23.1584C113.948 21.7184 114.648 20.4784 115.518 19.4284C116.388 18.3784 117.388 17.5684 118.538 16.9784C119.678 16.3984 120.898 16.1084 122.198 16.1084C123.498 16.1084 124.498 16.4284 125.198 17.0684C125.898 17.7084 126.248 18.5484 126.248 19.5684C126.248 20.5884 125.988 21.4284 125.478 22.0884C124.968 22.7484 124.308 23.2884 123.498 23.7284C122.688 24.1684 121.788 24.5584 120.798 24.9084C119.808 25.2584 118.838 25.6384 117.888 26.0684V26.9584C117.908 27.8184 118.268 28.4184 118.958 28.7784C119.668 29.1484 120.448 29.3384 121.328 29.3584ZM120.718 19.2884C119.478 19.2884 118.628 20.7284 118.148 23.6084C118.648 23.2784 119.118 22.9784 119.558 22.7184C119.998 22.4584 120.388 22.2084 120.718 21.9684C121.428 21.4484 121.798 20.8484 121.828 20.1784C121.828 19.5884 121.458 19.2884 120.718 19.2884Z" fill="#FF441F"/>
<path d="M135.898 33.3587C132.498 33.3787 130.178 32.1087 128.938 29.5387C128.508 28.6387 128.298 27.4987 128.298 26.1287C128.298 24.7587 128.418 23.2987 128.658 21.7587C129.138 18.6687 130.048 15.8087 131.408 13.1887C132.098 11.8587 132.868 10.7187 133.728 9.75872C135.608 7.66872 137.698 6.62872 140.008 6.64872C141.028 6.64872 141.838 6.92872 142.418 7.48872C142.998 8.04872 143.288 8.84872 143.288 9.89872C143.288 10.9487 142.978 11.9987 142.358 13.0587C141.738 14.1187 140.948 15.2087 139.988 16.3387C139.028 17.4687 137.958 18.6587 136.798 19.8887C135.628 21.1287 134.488 22.4687 133.368 23.9187V25.3487C133.368 26.6787 133.658 27.6587 134.228 28.2787C134.798 28.8987 135.468 29.2087 136.228 29.2087C138.278 29.2087 140.088 28.1987 141.658 26.1787C142.298 25.3487 142.788 24.9287 143.118 24.9287C143.448 24.9287 143.618 25.3387 143.618 26.1387C143.618 26.9487 143.398 27.7787 142.958 28.6187C142.518 29.4587 141.938 30.2387 141.228 30.9387C140.518 31.6387 139.688 32.2187 138.768 32.6687C137.848 33.1187 136.868 33.3587 135.898 33.3587ZM137.818 14.1887C138.318 13.5687 138.708 13.0087 138.998 12.5087C139.288 12.0087 139.428 11.4887 139.428 10.9587C139.428 10.4187 139.238 10.1587 138.858 10.1587C138.028 10.1587 137.098 11.0187 136.088 12.7287C135.078 14.4387 134.318 16.6887 133.818 19.4787C134.628 18.2387 135.368 17.2087 136.048 16.3687C136.728 15.5287 137.318 14.8087 137.818 14.1887Z" fill="#FF441F"/>
<path d="M145.778 33.3585C143.398 33.3585 142.208 31.1285 142.208 26.6785C142.208 24.2485 142.508 22.0485 143.098 20.0785C144.028 17.0285 145.078 15.5085 146.238 15.5085C146.928 15.5085 147.478 15.9685 147.878 16.8985C148.208 17.6085 148.368 18.3185 148.338 19.0085C148.338 19.9585 148.048 21.6385 147.478 24.0385C146.928 26.1285 146.658 27.4285 146.658 27.9285C146.658 28.4285 146.778 28.7685 147.038 28.9685C147.288 29.1585 147.588 29.2585 147.928 29.2585C148.268 29.2585 148.708 29.0285 149.228 28.5785C149.748 28.1285 150.278 27.6285 150.798 27.0985C151.318 26.5585 151.808 26.0685 152.248 25.6185C152.688 25.1685 152.988 24.9385 153.158 24.9385C153.488 24.9385 153.658 25.3485 153.658 26.1485C153.658 27.8185 152.818 29.4385 151.138 31.0185C149.478 32.5985 147.688 33.3785 145.778 33.3585ZM147.248 12.6185C146.608 11.6685 146.278 10.6385 146.278 9.54848C146.278 8.45848 146.448 7.54848 146.798 6.81848C147.138 6.08848 147.468 5.55848 147.778 5.20848C148.088 4.86848 148.448 4.68848 148.848 4.68848C149.518 4.68848 150.118 5.17848 150.668 6.16848C151.218 7.15848 151.488 7.97848 151.488 8.64848C151.488 9.88848 151.058 10.8585 150.188 11.5585C149.318 12.2685 148.338 12.6185 147.248 12.6185Z" fill="#FF441F"/>
<path d="M166.058 24.8282C166.488 24.8282 166.698 25.1882 166.698 25.9182C166.698 26.6482 166.518 27.4182 166.148 28.2582C165.778 29.0882 165.218 29.8982 164.468 30.6682C163.718 31.4382 162.758 32.0982 161.598 32.6482C160.428 33.1982 159.058 33.4682 157.478 33.4682C155.898 33.4682 154.508 32.9982 153.318 32.0582C152.128 31.1182 151.528 29.7582 151.528 27.9882C151.528 26.2182 151.808 24.6082 152.368 23.1682C152.928 21.7282 153.668 20.4882 154.578 19.4382C155.498 18.3882 156.538 17.5782 157.698 16.9882C158.868 16.4082 159.968 16.1182 161.018 16.1182C162.848 16.1182 163.768 16.8482 163.768 18.2982C163.768 19.1282 163.598 19.7982 163.248 20.2982C162.898 20.7982 162.548 21.0482 162.198 21.0482C161.718 21.0482 161.308 20.8782 160.948 20.5482C160.588 20.2182 160.198 20.0382 159.768 20.0282C159.338 20.0182 158.928 20.2282 158.538 20.6482C158.148 21.0782 157.818 21.6282 157.558 22.2882C157.038 23.6182 156.768 25.1782 156.768 26.9682C156.788 27.8282 157.188 28.4682 157.948 28.8982C158.468 29.1882 159.088 29.3282 159.808 29.3482C160.518 29.3582 161.208 29.1282 161.858 28.6482C162.508 28.1682 163.108 27.6582 163.658 27.0982C164.208 26.5382 164.688 26.0182 165.108 25.5482C165.528 25.0682 165.848 24.8282 166.058 24.8282Z" fill="#FF441F"/>
<path d="M169.198 33.3585C166.818 33.3585 165.628 31.1285 165.628 26.6785C165.628 24.2485 165.928 22.0485 166.518 20.0785C167.448 17.0285 168.498 15.5085 169.658 15.5085C170.348 15.5085 170.898 15.9685 171.298 16.8985C171.628 17.6085 171.788 18.3185 171.758 19.0085C171.758 19.9585 171.468 21.6385 170.898 24.0385C170.348 26.1285 170.078 27.4285 170.078 27.9285C170.078 28.4285 170.198 28.7685 170.458 28.9685C170.708 29.1585 171.008 29.2585 171.348 29.2585C171.688 29.2585 172.128 29.0285 172.648 28.5785C173.168 28.1285 173.698 27.6285 174.218 27.0985C174.738 26.5585 175.228 26.0685 175.668 25.6185C176.108 25.1685 176.408 24.9385 176.578 24.9385C176.908 24.9385 177.078 25.3485 177.078 26.1485C177.078 27.8185 176.238 29.4385 174.558 31.0185C172.898 32.5985 171.108 33.3785 169.198 33.3585ZM170.668 12.6185C170.028 11.6685 169.708 10.6485 169.708 9.54848C169.708 8.45848 169.878 7.54848 170.228 6.81848C170.568 6.08848 170.898 5.55848 171.208 5.20848C171.518 4.86848 171.878 4.68848 172.278 4.68848C172.948 4.68848 173.548 5.17848 174.098 6.16848C174.648 7.15848 174.918 7.97848 174.918 8.64848C174.918 9.88848 174.488 10.8585 173.618 11.5585C172.738 12.2685 171.758 12.6185 170.668 12.6185Z" fill="#FF441F"/>
<path d="M189.729 30.2184C187.849 32.4284 185.589 33.5384 182.959 33.5384C180.329 33.5384 178.359 32.8684 177.049 31.5184C175.739 30.1784 175.099 28.4984 175.119 26.4984C175.099 23.6684 175.989 21.2284 177.799 19.1784C179.609 17.1284 181.979 16.1084 184.899 16.1084C186.229 16.1084 187.299 16.2784 188.109 16.6084C189.509 17.1784 190.219 17.7184 190.219 18.2184C190.219 18.5984 189.239 18.7984 187.269 18.8084C185.299 18.8184 183.659 19.4984 182.339 20.8484C181.019 22.1884 180.359 23.8884 180.359 25.9384C180.359 27.0084 180.669 27.9084 181.309 28.6384C181.939 29.3684 182.829 29.7284 183.989 29.7284C185.139 29.7284 186.099 29.4884 186.859 29.0184C185.169 27.8784 184.329 26.2184 184.329 24.0584C184.309 22.9184 184.719 21.8784 185.559 20.9384C186.399 19.9984 187.489 19.5184 188.809 19.5084C190.129 19.4984 191.079 19.8584 191.649 20.5984C192.219 21.3384 192.509 22.2784 192.509 23.4384C192.509 24.5984 192.239 25.8084 191.689 27.0984H191.899C192.949 27.0784 193.849 26.7084 194.609 25.9884C194.899 25.6984 195.139 25.4484 195.339 25.2384C195.539 25.0284 195.749 24.9184 195.959 24.9184C196.289 24.9184 196.459 25.3084 196.459 26.0984C196.459 27.5484 196.029 28.6384 195.169 29.3684C194.309 30.0984 193.369 30.4584 192.329 30.4584C191.289 30.4584 190.439 30.3584 189.729 30.2184ZM189.409 26.0784C189.809 25.2184 190.019 24.3884 190.019 23.5784C190.019 22.7684 189.759 22.3684 189.229 22.3684C189.019 22.3684 188.839 22.5284 188.689 22.8284C188.549 23.1384 188.479 23.4384 188.479 23.7184C188.479 24.6684 188.789 25.4584 189.409 26.0784Z" fill="#FF441F"/>
<path d="M205.788 18.1888C205.788 16.5988 207.028 15.7988 209.498 15.7988C210.118 15.7988 210.508 15.9988 210.658 16.4088C210.808 16.8188 210.888 17.4288 210.888 18.2688C210.888 19.4388 210.628 21.2488 210.098 23.6988C209.568 26.1488 209.328 27.8088 209.348 28.6588C209.348 29.0688 209.478 29.2688 209.738 29.2688C210.098 29.2688 210.538 29.0388 211.058 28.5888C211.578 28.1388 212.108 27.6388 212.628 27.1088C213.148 26.5788 213.638 26.0788 214.078 25.6288C214.518 25.1788 214.818 24.9488 214.988 24.9488C215.318 24.9488 215.488 25.3588 215.488 26.1588C215.488 27.8288 214.668 29.4288 213.028 30.9788C210.268 32.5988 208.518 33.4088 207.778 33.4088C207.708 33.4088 207.648 33.3988 207.598 33.3688C206.698 33.3688 206.058 33.0688 205.688 32.4788C205.318 31.8888 205.088 31.1388 204.988 30.2288C204.508 31.1088 203.858 31.8688 203.028 32.4988C202.198 33.1288 201.238 33.4488 200.168 33.4488C198.288 33.4488 196.838 33.0888 195.828 32.3788C194.818 31.6688 194.308 30.6088 194.308 29.1988C194.308 28.5788 194.398 28.0088 194.578 27.4888C194.758 26.9688 195.048 26.3188 195.448 25.5588L196.488 16.7788C197.228 16.2088 198.288 15.9188 199.668 15.9188C200.758 15.9188 201.378 16.6288 201.528 18.0588C201.648 19.2288 201.598 20.2688 201.368 21.1788C201.138 22.0988 200.838 23.2488 200.458 24.6388C200.078 26.0288 199.888 27.2588 199.888 28.3288C199.888 29.1888 200.428 29.6188 201.498 29.6188C202.668 29.6188 203.678 28.5988 204.528 26.5488C205.198 24.9788 205.648 23.2288 205.888 21.2988C205.868 21.1088 205.848 20.8688 205.838 20.5688C205.828 20.2688 205.818 19.9788 205.798 19.6888C205.788 19.3988 205.778 19.1188 205.778 18.8288V18.1888H205.788Z" fill="#FF441F"/>
<path d="M221.859 15.9582C223.449 15.9482 224.639 16.2483 225.429 16.8483C226.219 17.4583 226.609 18.3283 226.609 19.4583C226.609 20.5883 226.269 21.5482 225.589 22.3482C224.909 23.1483 224.079 23.7083 223.109 24.0483C223.799 24.7583 224.419 25.4882 224.979 26.2282C225.539 26.9682 225.819 27.7383 225.819 28.5483C225.819 30.1383 225.189 31.3782 223.929 32.2382C222.669 33.1082 220.909 33.5382 218.659 33.5382C216.409 33.5382 214.729 33.0882 213.609 32.1982C212.489 31.3082 211.929 30.2983 211.929 29.1582C211.929 28.0282 212.209 26.9983 212.769 26.0682C213.329 25.1382 213.929 24.6783 214.569 24.6783C214.949 24.6783 215.219 24.8182 215.389 25.0883C215.559 25.3583 215.869 26.1583 216.319 27.4583C216.489 27.9383 216.759 28.3882 217.139 28.8182C218.019 29.7983 219.409 30.2783 221.319 30.2783C221.029 29.3783 220.579 28.5983 219.949 27.9383C219.319 27.2883 218.689 26.6483 218.079 26.0283C217.459 25.4083 216.909 24.7483 216.439 24.0483C215.959 23.3483 215.729 22.5182 215.729 21.5682C215.729 19.8582 216.369 18.4583 217.659 17.3883C218.859 16.4483 220.259 15.9682 221.859 15.9582ZM221.719 22.5782C222.669 21.5582 223.149 20.7383 223.149 20.1183C223.149 19.8283 223.049 19.5783 222.849 19.3483C222.649 19.1183 222.359 19.0082 221.979 19.0082C221.599 19.0082 221.239 19.0582 220.889 19.1482C220.539 19.2482 220.269 19.3183 220.049 19.3583C220.039 20.2683 220.599 21.3382 221.719 22.5782Z" fill="#FF441F"/>
<path d="M89.6686 45.4988V48.4788H94.3986V50.0187H89.6686V53.7687H87.8486V43.9688H94.9986V45.4988H89.6686Z" fill="#06C167"/>
<path d="M99.9286 53.2591C99.1286 52.8291 98.4986 52.2191 98.0386 51.4491C97.5786 50.6791 97.3486 49.8191 97.3486 48.8691C97.3486 47.9191 97.5786 47.0591 98.0386 46.2891C98.4986 45.5191 99.1286 44.9191 99.9286 44.4791C100.729 44.0391 101.629 43.8291 102.629 43.8291C103.629 43.8291 104.529 44.0491 105.329 44.4791C106.129 44.9091 106.759 45.5091 107.219 46.2791C107.679 47.0491 107.909 47.9091 107.909 48.8691C107.909 49.8291 107.679 50.6991 107.219 51.4591C106.759 52.2191 106.129 52.8191 105.329 53.2591C104.529 53.6891 103.629 53.9091 102.629 53.9091C101.629 53.9091 100.729 53.6891 99.9286 53.2591ZM104.389 51.8691C104.909 51.5791 105.319 51.1691 105.619 50.6391C105.919 50.1091 106.069 49.5191 106.069 48.8691C106.069 48.2191 105.919 47.6291 105.619 47.0991C105.319 46.5691 104.909 46.1591 104.389 45.8691C103.869 45.5791 103.279 45.4291 102.629 45.4291C101.979 45.4291 101.389 45.5791 100.869 45.8691C100.349 46.1591 99.9386 46.5791 99.6386 47.0991C99.3386 47.6191 99.1886 48.2191 99.1886 48.8691C99.1886 49.5191 99.3386 50.1091 99.6386 50.6391C99.9386 51.1691 100.349 51.5791 100.869 51.8691C101.389 52.1591 101.979 52.3091 102.629 52.3091C103.279 52.3091 103.869 52.1691 104.389 51.8691Z" fill="#06C167"/>
<path d="M113.118 53.2591C112.318 52.8291 111.688 52.2191 111.228 51.4491C110.768 50.6791 110.538 49.8191 110.538 48.8691C110.538 47.9191 110.768 47.0591 111.228 46.2891C111.688 45.5191 112.318 44.9191 113.118 44.4791C113.918 44.0391 114.818 43.8291 115.818 43.8291C116.818 43.8291 117.718 44.0491 118.518 44.4791C119.318 44.9091 119.948 45.5091 120.408 46.2791C120.868 47.0491 121.098 47.9091 121.098 48.8691C121.098 49.8291 120.868 50.6991 120.408 51.4591C119.948 52.2191 119.318 52.8191 118.518 53.2591C117.718 53.6891 116.818 53.9091 115.818 53.9091C114.818 53.9091 113.918 53.6891 113.118 53.2591ZM117.578 51.8691C118.098 51.5791 118.508 51.1691 118.808 50.6391C119.108 50.1091 119.258 49.5191 119.258 48.8691C119.258 48.2191 119.108 47.6291 118.808 47.0991C118.508 46.5691 118.098 46.1591 117.578 45.8691C117.058 45.5791 116.468 45.4291 115.818 45.4291C115.168 45.4291 114.578 45.5791 114.058 45.8691C113.538 46.1591 113.128 46.5791 112.828 47.0991C112.528 47.6191 112.378 48.2191 112.378 48.8691C112.378 49.5191 112.528 50.1091 112.828 50.6391C113.128 51.1691 113.538 51.5791 114.058 51.8691C114.578 52.1591 115.168 52.3091 115.818 52.3091C116.468 52.3091 117.058 52.1691 117.578 51.8691Z" fill="#06C167"/>
<path d="M124.429 43.9688H128.709C129.749 43.9688 130.679 44.1688 131.499 44.5788C132.309 44.9888 132.939 45.5588 133.389 46.2988C133.839 47.0388 134.059 47.8988 134.059 48.8688C134.059 49.8388 133.839 50.6988 133.389 51.4388C132.939 52.1788 132.309 52.7588 131.499 53.1588C130.689 53.5688 129.759 53.7687 128.709 53.7687H124.429V43.9688ZM128.629 52.2288C129.349 52.2288 129.979 52.0888 130.529 51.8188C131.079 51.5488 131.499 51.1488 131.789 50.6388C132.079 50.1288 132.229 49.5388 132.229 48.8688C132.229 48.1988 132.079 47.6088 131.789 47.0988C131.499 46.5888 131.079 46.1988 130.529 45.9188C129.979 45.6388 129.349 45.5088 128.629 45.5088H126.249V52.2288H128.629Z" fill="#06C167"/>
<path d="M142.649 43.9688H146.929C147.969 43.9688 148.899 44.1688 149.719 44.5788C150.529 44.9888 151.159 45.5588 151.609 46.2988C152.059 47.0388 152.279 47.8988 152.279 48.8688C152.279 49.8388 152.059 50.6988 151.609 51.4388C151.159 52.1788 150.529 52.7588 149.719 53.1588C148.909 53.5688 147.979 53.7687 146.929 53.7687H142.649V43.9688ZM146.849 52.2288C147.569 52.2288 148.199 52.0888 148.749 51.8188C149.299 51.5488 149.719 51.1488 150.009 50.6388C150.299 50.1288 150.449 49.5388 150.449 48.8688C150.449 48.1988 150.299 47.6088 150.009 47.0988C149.719 46.5888 149.299 46.1988 148.749 45.9188C148.199 45.6388 147.569 45.5088 146.849 45.5088H144.469V52.2288H146.849Z" fill="#06C167"/>
<path d="M162.968 52.2495V53.7795H155.618V43.9795H162.768V45.5095H157.438V48.0595H162.168V49.5595H157.438V52.2595H162.968V52.2495Z" fill="#06C167"/>
<path d="M166.399 43.9688H168.219V52.2288H173.339V53.7687H166.399V43.9688Z" fill="#06C167"/>
<path d="M176.179 43.9688H177.999V53.7687H176.179V43.9688Z" fill="#06C167"/>
<path d="M190.939 43.9688L186.669 53.7687H184.879L180.599 43.9688H182.569L185.829 51.5288L189.119 43.9688H190.939Z" fill="#06C167"/>
<path d="M200.728 52.2495V53.7795H193.378V43.9795H200.528V45.5095H195.198V48.0595H199.928V49.5595H195.198V52.2595H200.728V52.2495Z" fill="#06C167"/>
<path d="M210.569 53.7687L208.569 50.8988C208.489 50.9088 208.359 50.9088 208.189 50.9088H205.979V53.7687H204.159V43.9688H208.189C209.039 43.9688 209.779 44.1088 210.409 44.3888C211.039 44.6688 211.519 45.0688 211.859 45.5888C212.199 46.1088 212.359 46.7287 212.359 47.4487C212.359 48.1887 212.179 48.8188 211.819 49.3488C211.459 49.8788 210.939 50.2787 210.269 50.5387L212.519 53.7588H210.569V53.7687ZM209.909 46.0187C209.499 45.6787 208.899 45.5187 208.099 45.5187H205.969V49.4288H208.099C208.889 49.4288 209.499 49.2588 209.909 48.9188C210.319 48.5788 210.529 48.0988 210.529 47.4688C210.529 46.8288 210.319 46.3487 209.909 46.0187Z" fill="#06C167"/>
<path d="M219.878 50.3088V53.7687H218.058V50.3388L214.208 43.9688H216.158L219.028 48.7388L221.928 43.9688H223.718L219.878 50.3088Z" fill="#06C167"/>
<path d="M36.639 8.68863C36.149 8.19863 35.909 7.60863 35.779 6.98863C35.659 6.36863 35.679 5.70863 35.899 5.05863C36.119 4.41863 36.559 3.78863 37.189 3.40863C37.819 3.02863 38.579 2.99863 39.189 3.25863C38.719 3.77863 38.399 4.13863 38.189 4.52863C37.989 4.90863 37.859 5.26863 37.709 5.67863C37.569 6.08863 37.439 6.54863 37.279 7.03863C37.109 7.53863 36.929 8.06863 36.639 8.68863Z" fill="white"/>
<path d="M76.4583 55.2488H2.55832C1.29832 55.2488 0.27832 54.2287 0.27832 52.9688V52.7488C0.27832 51.4888 1.29832 50.4688 2.55832 50.4688H76.4583C77.7183 50.4688 78.7383 51.4888 78.7383 52.7488V52.9688C78.7383 54.2287 77.7183 55.2488 76.4583 55.2488Z" fill="#FF441F"/>
</svg>
