<svg width="228" height="44" viewBox="0 0 228 44" fill="none" xmlns="http://www.w3.org/2000/svg">
<path d="M31.597 7.16999C35.8428 2.60678 43.252 -0.48166 46.25 2.30917C49.2481 5.10001 46.6997 12.712 42.4539 17.273C39.7226 20.2071 36.9582 21.1616 34.5334 20.7274C33.1688 20.4827 31.769 20.8662 30.8255 21.8803L11.2632 42.8997C10.5908 43.6228 9.48418 43.83 8.64869 43.3053C7.52222 42.5999 7.3635 41.0943 8.22324 40.1728L27.8362 19.0961C28.7797 18.082 29.0619 16.6579 28.7202 15.3132C28.1118 12.9302 28.8657 10.1041 31.597 7.16999Z" fill="#142328"/>
<path d="M43.6266 11.5527C43.3268 12.0906 42.9366 12.5734 42.5486 13.0474C42.1628 13.5257 41.7572 13.9864 41.3406 14.434C40.5029 15.3245 39.6079 16.1622 38.6159 16.8544C38.1243 17.2072 37.604 17.5158 37.0595 17.7583C36.5172 18.0096 35.9419 18.1837 35.3555 18.2719C34.1739 18.4615 32.9526 18.122 31.9055 17.4607C32.3707 17.8707 32.9152 18.1992 33.5082 18.424C34.1056 18.6445 34.7581 18.7172 35.3974 18.6643C36.6848 18.5585 37.8796 17.9897 38.9046 17.2667C39.9341 16.5348 40.8402 15.6552 41.6338 14.6941C42.0328 14.2157 42.4031 13.7131 42.747 13.1951C42.9167 12.9349 43.0777 12.6682 43.232 12.397C43.3819 12.1259 43.5406 11.8547 43.6266 11.5527Z" fill="white"/>
<path d="M2.33695 6.70635L9.60062 14.0361L10.3457 13.2977L3.08426 5.96785C2.78666 5.66805 2.78886 5.18307 3.08867 4.88767C3.38847 4.59007 3.87345 4.59228 4.16885 4.89208L11.4325 12.2219L12.1798 11.4812L4.91616 4.15139C4.61856 3.85158 4.62076 3.3666 4.92057 3.07121C5.22037 2.77361 5.70535 2.77581 6.00075 3.07561L13.2644 10.4054L14.0095 9.66692L6.74806 2.33712C6.45046 2.03732 6.45266 1.55234 6.75247 1.25694L6.88914 1.12027C7.18895 0.822666 7.67393 0.824871 7.96932 1.12468L19.999 13.2668C20.9535 14.2301 21.4165 15.4933 21.3944 16.7498C21.3746 17.9248 21.8067 19.0623 22.6333 19.8978L42.6189 40.0685C43.3133 40.7695 43.4764 41.8828 42.9187 42.6984C42.167 43.794 40.6569 43.8932 39.7707 42.9982L19.7323 22.7724C18.9056 21.9369 17.7725 21.4938 16.5975 21.5048C15.341 21.5158 14.0823 21.0397 13.1277 20.0763L1.09805 7.93422C0.80045 7.63442 0.802654 7.14944 1.10246 6.85404L1.25457 6.70194C1.55658 6.40434 2.04156 6.40654 2.33695 6.70635Z" fill="#142328"/>
<path d="M19.4342 17.5838C19.6172 16.8739 19.6635 16.1266 19.5445 15.3815C19.4871 15.0068 19.3637 14.6364 19.1675 14.2903C19.1212 14.2021 19.0683 14.1184 18.9978 14.0412C18.9316 13.9641 18.8765 13.8781 18.7927 13.8142C18.7178 13.748 18.634 13.6731 18.5613 13.618L18.3496 13.4592C17.7831 13.0316 17.2342 12.5642 16.6743 12.1101C16.1165 11.6516 15.5566 11.1931 14.968 10.7588C15.4089 11.343 15.8961 11.8831 16.4097 12.4011C16.9212 12.9192 17.4635 13.4085 18.0454 13.8605L18.2703 14.0236C18.343 14.0765 18.3915 14.125 18.4555 14.1757C18.5701 14.2815 18.6759 14.4027 18.7597 14.5416C18.9404 14.8128 19.0639 15.1324 19.1587 15.4675C19.3416 16.1376 19.41 16.8541 19.4342 17.5838Z" fill="white"/>
<path d="M91.5957 2.44531H79.2706C77.7297 2.44531 76.4797 3.69524 76.4797 5.23615C76.4797 6.77706 77.7297 8.02698 79.2706 8.02698H91.5957C93.1366 8.02698 94.3865 6.77706 94.3865 5.23615C94.3865 3.69524 93.1366 2.44531 91.5957 2.44531Z" fill="#FC7E10"/>
<path d="M84.2686 14.0742C82.7277 14.0742 81.4778 15.3241 81.4778 16.8651C81.4778 18.406 82.7277 19.6559 84.2686 19.6559C85.8095 19.6559 87.0595 18.406 87.0595 16.8651C87.0595 15.3241 85.8095 14.0742 84.2686 14.0742Z" fill="#FC7E10"/>
<path d="M58.7961 37.4058H55.1102C53.5693 37.4058 52.3194 36.1558 52.3194 34.6149V34.2887C52.3194 32.7477 53.5693 31.4978 55.1102 31.4978H67.1686C67.2722 31.4978 67.3758 31.5044 67.475 31.5155C68.8726 31.3634 69.9594 30.1796 69.9594 28.7423V28.416C69.9594 26.8751 68.7095 25.6252 67.1686 25.6252H61.7368V25.5789C60.3612 25.4069 59.2943 24.2342 59.2943 22.8123V22.486C59.2943 21.0642 60.359 19.8914 61.7368 19.7194V19.6731H73.7819C75.3228 19.6731 76.5728 18.4232 76.5728 16.8823V16.5561C76.5728 15.0151 75.3228 13.7652 73.7819 13.7652H61.7368V13.7432H55.1675C53.6266 13.7432 52.3767 12.4932 52.3767 10.9523V10.6261C52.3767 9.08517 53.6266 7.83525 55.1675 7.83525H61.7368V7.8132H68.5375C70.0785 7.8132 71.3284 6.56328 71.3284 5.02237V4.69611C71.3284 3.1552 70.0785 1.90527 68.5375 1.90527H61.7368H54.2858H45.7105C45.9 2.02431 46.0786 2.15658 46.2439 2.30869C49.242 5.09952 46.6936 12.7115 42.4479 17.2725C39.7166 20.2066 36.9522 21.1612 34.5273 20.7269C33.1627 20.4822 31.7629 20.8658 30.8194 21.8798L27.8059 25.1181L42.6176 40.0665C43.312 40.7675 43.4751 41.8808 42.9174 42.6964C42.7455 42.9455 42.5338 43.1417 42.3002 43.2872H58.8005C60.4252 43.2872 61.7412 41.9712 61.7412 40.3465C61.7412 38.7218 60.4208 37.4058 58.7961 37.4058Z" fill="#FC7E10"/>
<path d="M81.944 25.7021H75.7803C74.2394 25.7021 72.9895 26.9521 72.9895 28.493C72.9895 30.0339 74.2394 31.2838 75.7803 31.2838H81.944C83.4849 31.2838 84.7348 30.0339 84.7348 28.493C84.7348 26.9499 83.4849 25.7021 81.944 25.7021Z" fill="#FC7E10"/>
<path d="M73.5709 37.3291H67.4073C65.8664 37.3291 64.6165 38.579 64.6165 40.1199C64.6165 41.6608 65.8664 42.9108 67.4073 42.9108H73.5709C75.1118 42.9108 76.3618 41.6608 76.3618 40.1199C76.3618 38.579 75.1118 37.3291 73.5709 37.3291Z" fill="#FC7E10"/>
<path d="M104.991 12.4727H116.015L115.129 16.6633H108.355L106.551 25.1042H112.378L111.492 29.3103H105.665L102.978 41.9418H98.7278L104.991 12.4727Z" fill="#142328"/>
<path d="M125.31 18.196C125.361 17.9469 125.385 17.7198 125.385 17.5192C125.385 16.6374 124.889 16.1965 123.9 16.1965H123.869C122.636 16.2075 121.88 16.8733 121.6 18.1938L120.76 22.1596H116.51L117.35 18.1938C118.232 14.0692 120.71 12.0059 124.784 12.0059C128.128 12.0059 129.799 13.3969 129.799 16.1811C129.799 16.7917 129.719 17.4619 129.558 18.1938L125.729 36.2151C124.848 40.3507 122.374 42.4185 118.309 42.4185C114.954 42.4096 113.279 41.0076 113.279 38.2124C113.279 37.6105 113.358 36.9448 113.519 36.2151L114.57 31.275C115.441 27.1504 117.438 25.0827 120.562 25.0716C121.913 25.0716 122.941 25.3869 123.642 26.0173L125.31 18.196ZM117.771 36.2173C117.721 36.4576 117.696 36.6825 117.696 36.8941C117.696 37.7759 118.201 38.2168 119.213 38.2168C120.445 38.2168 121.201 37.551 121.481 36.2195L122.533 31.2639C122.584 31.0237 122.608 30.8032 122.608 30.6026C122.608 29.7208 122.107 29.2799 121.107 29.2799C119.865 29.2799 119.105 29.9457 118.823 31.2772L117.771 36.2173Z" fill="#142328"/>
<path d="M132.868 18.1957C133.749 14.0712 136.223 12.0078 140.288 12.0078C143.641 12.0078 145.318 13.4054 145.318 16.1985C145.318 16.8003 145.239 17.466 145.078 18.1957L144.236 22.1615H139.986L140.828 18.1957C140.878 17.9554 140.903 17.735 140.903 17.5344C140.903 16.6526 140.402 16.2073 139.402 16.1985H139.371C138.149 16.1985 137.398 16.8642 137.118 18.1957L136.547 20.8697C136.516 21.0108 136.503 21.1607 136.503 21.3194C136.503 22.5407 137.503 23.9978 139.507 25.6908C141.311 27.2031 142.21 28.96 142.21 30.9617C142.21 31.4533 142.155 31.9625 142.045 32.4938L141.249 36.2193C140.367 40.3548 137.894 42.4226 133.829 42.4226C130.473 42.4138 128.798 41.0118 128.798 38.2165C128.798 37.6147 128.877 36.949 129.038 36.2193L129.878 32.2535H134.128L133.289 36.2193C133.238 36.4596 133.214 36.6844 133.214 36.8961C133.214 37.7778 133.718 38.2187 134.73 38.2187C135.963 38.2187 136.719 37.553 136.999 36.2215L137.72 32.8575C137.759 32.6878 137.779 32.518 137.779 32.3461C137.779 31.0454 136.783 29.553 134.79 27.871C132.998 26.3698 132.1 24.6062 132.1 22.5848C132.1 22.0645 132.16 21.5244 132.281 20.9623L132.868 18.1957Z" fill="#142328"/>
<path d="M155.544 12.4728H158.833L157.946 16.6634H154.657L149.281 41.9397H145.031L150.407 16.6634H147.358L148.245 12.4728H151.293L153.321 2.9209H157.572L155.544 12.4728Z" fill="#142328"/>
<path d="M168.713 12.4727H179.738L178.852 16.6633H172.077L170.274 25.1042H176.1L175.214 29.3103H169.388L166.701 41.9418H162.45L168.713 12.4727Z" fill="#FC7E10"/>
<path d="M189.454 36.2171C188.572 40.3416 186.094 42.4094 182.02 42.4204C178.676 42.4204 177.005 41.0228 177.005 38.2298C177.005 37.6301 177.084 36.9578 177.245 36.2171L181.075 18.1957C181.956 14.0712 184.43 12.0078 188.495 12.0078C191.848 12.0078 193.525 13.4054 193.525 16.1985C193.525 16.8003 193.446 17.466 193.285 18.1957L189.454 36.2171ZM189.035 18.1957C189.086 17.9554 189.11 17.735 189.11 17.5344C189.11 16.6526 188.609 16.2073 187.609 16.1985H187.578C186.356 16.1985 185.605 16.8642 185.325 18.1957L181.496 36.2171C181.445 36.4684 181.421 36.6932 181.421 36.8939C181.421 37.7756 181.921 38.2165 182.922 38.2165C184.163 38.2165 184.924 37.5508 185.206 36.2193L189.035 18.1957Z" fill="#FC7E10"/>
<path d="M204.969 36.2171C204.088 40.3416 201.61 42.4094 197.536 42.4204C194.192 42.4204 192.521 41.0228 192.521 38.2298C192.521 37.6301 192.6 36.9578 192.761 36.2171L196.59 18.1957C197.472 14.0712 199.945 12.0078 204.01 12.0078C207.363 12.0078 209.041 13.4054 209.041 16.1985C209.041 16.8003 208.962 17.466 208.801 18.1957L204.969 36.2171ZM204.548 18.1957C204.599 17.9554 204.623 17.735 204.623 17.5344C204.623 16.6526 204.123 16.2073 203.122 16.1985H203.091C201.87 16.1985 201.118 16.8642 200.838 18.1957L197.009 36.2171C196.958 36.4684 196.934 36.6932 196.934 36.8939C196.934 37.7756 197.434 38.2165 198.435 38.2165C199.676 38.2165 200.437 37.5508 200.719 36.2193L204.548 18.1957Z" fill="#FC7E10"/>
<path d="M223.309 2.9209H227.559L220.485 36.2169C219.603 40.3414 217.125 42.4092 213.052 42.4202C209.707 42.4202 208.036 41.0226 208.036 38.2296C208.036 37.63 208.116 36.9576 208.277 36.2169L212.106 18.2088C212.977 14.0842 214.974 12.0165 218.097 12.0054C219.449 12.0054 220.476 12.3207 221.177 12.9511L223.309 2.9209ZM220.064 18.1955C220.115 17.9553 220.139 17.7348 220.139 17.5342C220.139 16.6524 219.638 16.2115 218.638 16.2115C217.396 16.2115 216.636 16.8773 216.354 18.2088L212.525 36.2169C212.474 36.4682 212.45 36.6931 212.45 36.8937C212.45 37.7755 212.95 38.2164 213.951 38.2164C215.192 38.2164 215.953 37.5506 216.235 36.2191L220.064 18.1955Z" fill="#FC7E10"/>
</svg>
