<svg width="238" height="42" viewBox="0 0 238 42" fill="none" xmlns="http://www.w3.org/2000/svg">
<path d="M0.964111 40.7655V8.50551C0.964111 5.67551 1.71411 3.55551 3.20411 2.14551C4.61411 0.815508 6.93411 0.145508 10.1541 0.145508C10.9341 0.145508 11.5641 0.185508 12.0341 0.265508C12.8941 0.265508 13.5641 0.305508 14.0341 0.385508V6.85551H11.9141C10.8141 6.85551 10.0341 7.01551 9.56411 7.32551C9.16411 7.64551 8.97411 8.26551 8.97411 9.21551V11.3355H14.0341V13.1055C14.0341 14.2855 13.6441 15.2455 12.8541 15.9855C12.0641 16.7355 11.1641 17.1055 10.1441 17.1055H8.97411V40.7655H0.964111Z" fill="#142328"/>
<path d="M20.3139 37.9358C18.6639 36.5258 17.4839 34.6158 16.7839 32.2258C16.0739 29.8358 15.7239 27.3358 15.7239 24.7458C15.7239 22.6258 16.0139 20.5058 16.6039 18.3858C17.1939 16.2658 18.1139 14.5058 19.3739 13.0858C21.4139 10.7358 24.0439 9.33577 27.2639 8.90577C30.4839 8.47577 33.3839 8.72577 35.9739 9.66577C38.9539 10.8458 41.1539 12.8858 42.5639 15.7858C43.8939 18.3758 44.5639 21.3958 44.5639 24.8558C44.5639 27.3658 44.2839 29.5258 43.7439 31.3358C43.1939 33.1458 42.4839 34.6758 41.6239 35.9258C39.7439 38.5158 37.3439 40.1258 34.4439 40.7558C31.8539 41.4658 29.2439 41.5258 26.6139 40.9358C23.9839 40.3458 21.8839 39.3458 20.3139 37.9358ZM25.9639 17.2158C24.3139 19.0258 23.5739 21.7058 23.7239 25.2758C23.8839 28.8458 24.5439 31.3358 25.7239 32.7558C26.1939 33.3858 27.0239 33.9158 28.1939 34.3458C29.3739 34.7758 30.5639 34.8158 31.7839 34.4658C33.0039 34.1158 34.0839 33.2258 35.0239 31.8158C35.9639 30.4058 36.4739 28.1258 36.5539 24.9858C36.5539 22.1558 36.1039 20.0458 35.2039 18.6258C34.3039 17.2158 33.2639 16.3158 32.0839 15.9158C30.9039 15.5258 29.7339 15.5058 28.5539 15.8558C27.3739 16.2158 26.5139 16.6658 25.9639 17.2158Z" fill="#142328"/>
<path d="M51.5541 37.9355C49.9041 36.5255 48.7241 34.6155 48.0241 32.2255C47.3141 29.8355 46.9641 27.3455 46.9641 24.7555C46.9641 22.6355 47.2541 20.5155 47.8441 18.3955C48.4341 16.2755 49.3541 14.5155 50.6141 13.0955C52.6541 10.7455 55.2841 9.34553 58.5041 8.91553C61.7241 8.48553 64.6241 8.73553 67.2141 9.67553C70.1941 10.8555 72.3941 12.8955 73.8041 15.7955C75.1341 18.3855 75.8041 21.4055 75.8041 24.8655C75.8041 27.3755 75.5241 29.5355 74.9841 31.3455C74.4341 33.1555 73.7241 34.6855 72.8641 35.9355C70.9841 38.5255 68.5841 40.1355 65.6841 40.7655C63.0941 41.4755 60.4841 41.5355 57.8541 40.9455C55.2241 40.3455 53.1241 39.3455 51.5541 37.9355ZM57.2041 17.2155C55.5541 19.0255 54.8141 21.7055 54.9641 25.2755C55.1241 28.8455 55.7841 31.3355 56.9641 32.7555C57.4341 33.3855 58.2641 33.9155 59.4341 34.3455C60.6141 34.7755 61.8041 34.8155 63.0241 34.4655C64.2441 34.1155 65.3241 33.2255 66.2641 31.8155C67.2041 30.4055 67.7141 28.1255 67.7941 24.9855C67.7941 22.1555 67.3441 20.0455 66.4441 18.6255C65.5441 17.2155 64.5041 16.3155 63.3241 15.9155C62.1441 15.5255 60.9741 15.5055 59.7941 15.8555C58.6141 16.2155 57.7541 16.6655 57.2041 17.2155Z" fill="#142328"/>
<path d="M99.6341 0.145508H103.634C104.734 0.145508 105.674 0.555508 106.464 1.38551C107.244 2.20551 107.644 3.13551 107.644 4.15551V27.1155C107.644 32.6855 106.034 36.4555 102.814 38.4155C99.5941 40.3755 96.1041 41.3555 92.3341 41.3555C90.2941 41.3555 88.2941 41.0155 86.3341 40.3555C84.3741 39.6855 82.8041 38.6055 81.6241 37.1155C79.3441 34.2155 78.2141 30.2455 78.2141 25.2255C78.2141 20.2855 79.3541 16.3155 81.6241 13.3355C83.9841 10.2755 87.0041 8.74551 90.6841 8.74551C92.6441 8.74551 94.3741 9.13551 95.8641 9.92551C97.4341 10.8655 98.6841 12.0855 99.6341 13.5755V0.145508ZM86.2041 24.8655C86.2041 28.0055 86.7941 30.3955 87.9741 32.0455C89.1541 33.6955 90.8341 34.5155 93.0341 34.5155C95.1541 34.5155 96.8041 33.6855 97.9741 32.0455C99.0741 30.3955 99.6241 28.0055 99.6241 24.8655C99.6241 22.0355 99.0341 19.8055 97.8541 18.1555C96.5941 16.5855 94.9141 15.7955 92.7941 15.7955C90.7541 15.7955 89.1441 16.6255 87.9641 18.2655C86.7941 19.8455 86.2041 22.0455 86.2041 24.8655Z" fill="#142328"/>
<path d="M132.634 31.1056H138.524C137.654 34.4056 136.014 36.9156 133.574 38.6356C131.144 40.4456 128.084 41.3456 124.394 41.3456C119.924 41.3456 116.424 39.8956 113.914 36.9856C111.404 34.1556 110.144 30.1156 110.144 24.8556C110.144 19.8356 111.364 15.9056 113.794 13.0856C116.304 10.1856 119.794 8.72559 124.274 8.72559C128.984 8.72559 132.634 10.1356 135.224 12.9656C136.634 14.6956 137.654 16.6956 138.284 18.9656H130.044C129.654 18.1856 129.254 17.5956 128.864 17.1956C127.844 16.0956 126.394 15.5456 124.504 15.5456C122.774 15.5456 121.364 16.0956 120.264 17.1956C118.854 18.7656 118.144 21.3556 118.144 24.9656C118.144 28.5756 118.854 31.1256 120.264 32.6156C121.284 33.8756 122.814 34.4956 124.854 34.4956C126.184 34.4956 127.324 34.2256 128.264 33.6656C128.494 33.5856 128.714 33.4556 128.914 33.2556C129.114 33.0556 129.324 32.8456 129.564 32.6056C129.724 32.3656 130.034 32.0556 130.504 31.6656C130.984 31.3056 131.694 31.1056 132.634 31.1056Z" fill="#06C167"/>
<path d="M145.515 37.9358C143.865 36.5258 142.685 34.6158 141.985 32.2258C141.275 29.8358 140.925 27.3358 140.925 24.7458C140.925 22.6258 141.215 20.5058 141.805 18.3858C142.395 16.2658 143.315 14.5058 144.575 13.0858C146.615 10.7358 149.245 9.33577 152.465 8.90577C155.685 8.47577 158.585 8.72577 161.175 9.66577C164.155 10.8458 166.355 12.8858 167.765 15.7858C169.095 18.3758 169.765 21.3958 169.765 24.8558C169.765 27.3658 169.485 29.5258 168.935 31.3358C168.385 33.1458 167.675 34.6758 166.815 35.9258C164.935 38.5158 162.535 40.1258 159.635 40.7558C157.045 41.4658 154.435 41.5258 151.805 40.9358C149.175 40.3458 147.085 39.3458 145.515 37.9358ZM151.165 17.2158C149.515 19.0258 148.775 21.7058 148.925 25.2758C149.085 28.8458 149.745 31.3358 150.925 32.7558C151.395 33.3858 152.215 33.9158 153.395 34.3458C154.575 34.7758 155.765 34.8158 156.985 34.4658C158.205 34.1158 159.275 33.2258 160.225 31.8158C161.165 30.4058 161.675 28.1258 161.755 24.9858C161.755 22.1558 161.305 20.0458 160.405 18.6258C159.505 17.2158 158.465 16.3158 157.285 15.9158C156.105 15.5258 154.935 15.5058 153.755 15.8558C152.575 16.2158 151.715 16.6658 151.165 17.2158Z" fill="#06C167"/>
<path d="M200.175 9.44555V27.8155C200.175 33.3855 198.725 37.0355 195.815 38.7655C192.915 40.4955 189.735 41.3555 186.275 41.3555C182.895 41.1955 179.815 40.2555 177.035 38.5255C174.245 36.7955 172.855 33.2255 172.855 27.8155V9.44555H181.095V29.4555C181.095 31.3355 181.645 32.7155 182.745 33.5755C183.845 34.4355 185.095 34.8755 186.515 34.8755C187.925 34.8755 189.205 34.4455 190.345 33.5755C191.485 32.7155 192.055 31.3355 192.055 29.4555V13.4455C192.055 12.3455 192.425 11.4055 193.175 10.6155C193.915 9.83555 194.885 9.43555 196.055 9.43555H200.175V9.44555Z" fill="#06C167"/>
<path d="M203.284 40.7661V25.5761C203.284 22.5161 203.734 19.9461 204.634 17.8661C205.534 15.7861 206.774 14.1161 208.344 12.8661C209.834 11.6861 211.584 10.8261 213.584 10.2761C215.584 9.72605 217.644 9.45605 219.764 9.45605C219.924 9.45605 220.114 9.45605 220.354 9.45605C220.594 9.45605 220.784 9.45605 220.944 9.45605V17.8161H218.234C215.954 17.8161 214.274 18.3661 213.174 19.4661C212.074 20.5661 211.524 22.2961 211.524 24.6461V40.7761H203.284V40.7661Z" fill="#06C167"/>
<path d="M237.465 40.7656C234.875 40.9256 232.065 40.8856 229.045 40.6456C226.025 40.4056 224.515 38.4856 224.515 34.8756V0.265625H228.755C229.775 0.265625 230.675 0.655625 231.465 1.44562C232.245 2.23563 232.645 3.17563 232.645 4.27563V9.57563H237.475V11.2256C237.475 12.4056 237.085 13.3656 236.295 14.1056C235.505 14.8556 234.565 15.2256 233.465 15.2256H232.645V32.6456C232.645 33.9756 233.425 34.6456 234.995 34.6456H237.465V40.7656Z" fill="#06C167"/>
</svg>
