<svg width="267" height="77" viewBox="0 0 267 77" fill="none" xmlns="http://www.w3.org/2000/svg">
<path d="M265.561 38.7542C265.52 38.7054 265.504 38.6451 265.493 38.585C265.516 38.6394 265.538 38.6998 265.561 38.7542C265.584 38.2639 265.529 37.8077 265.367 37.3849C264.974 36.3641 264.593 35.3376 264.206 34.3109C264.056 33.3796 263.601 32.6925 263.178 32.2038C261.944 30.7681 260.504 29.9801 258.969 29.6687C258.725 29.3996 258.44 29.6144 258.181 29.5125C256.394 28.7942 254.58 28.9611 252.766 29.3854C252.485 29.4506 252.207 29.3602 251.93 29.5034C251.231 29.8581 250.493 29.8228 249.775 29.9975C248.823 30.2325 247.856 30.3355 246.902 30.6243C246.327 30.7964 245.746 30.9204 245.172 31.0566C244.585 31.1924 243.998 31.3283 243.412 31.4582C243.275 31.449 243.138 31.4697 242.999 31.5502C242.492 31.5862 241.982 31.4904 241.482 31.7361C241.411 31.7404 241.339 31.7387 241.268 31.743C239.748 31.8091 238.234 31.6358 236.716 31.8935C234.7 31.7624 232.686 31.6073 230.707 30.9443C230.34 30.822 229.982 30.6399 229.6 30.6669C229.114 30.5777 228.725 30.1316 228.304 29.8164C227.971 29.5692 227.662 29.2507 227.342 28.9678C227.08 28.6863 226.779 28.5775 226.484 28.4568C226.092 28.1723 225.7 27.8817 225.308 27.5972C224.555 26.9749 223.801 26.3587 223.048 25.7364C223.067 25.3957 222.898 25.2421 222.765 25.0773C222.291 24.4736 221.786 23.9231 221.243 23.4853C220.606 22.9675 220.107 22.1537 219.514 21.5413C219.247 21.2596 218.984 20.7985 218.844 21.9445C218.674 21.3479 218.478 21.0321 218.247 20.7692C218.311 20.3218 218.375 19.8565 218.212 19.4576C217.739 18.3092 217.935 17.0328 218.011 15.8255C218.131 14.0206 218.299 12.2109 217.91 10.4959C217.592 9.08176 217.154 7.70673 216.244 6.93114C216.135 6.73705 215.99 6.56007 215.833 6.67608C215.597 6.84412 215.452 6.67312 215.333 6.43089C215.128 6.01307 214.844 5.92261 214.535 5.8974C214.323 5.55721 214.055 5.54494 213.775 5.58025L213.776 5.55034C213.579 5.30629 213.344 5.43843 213.13 5.40349C213.106 5.43284 213.081 5.44425 213.058 5.44369C213.082 5.4263 213.106 5.42088 213.13 5.40349C212.061 5.05514 210.972 5.27499 209.889 5.26152C205.953 5.25289 202.012 5.25011 198.077 5.24149C197.796 5.28876 197.524 5.22849 197.244 5.2279C194.922 5.20929 192.6 5.22658 190.278 5.2319C190.129 5.2284 189.986 5.23103 189.837 5.22754C189.73 5.21904 189.624 5.20456 189.517 5.20204C180.122 5.19089 170.733 5.1739 161.339 5.16873C157.481 5.16791 153.622 5.17905 149.764 5.17822C149.55 5.17917 149.342 5.18027 149.127 5.18122C144.865 5.17687 140.608 5.16668 136.345 5.16234C133.642 5.15871 130.939 5.15509 128.237 5.15146C126.385 5.14389 124.528 5.12422 122.676 5.12861C119.11 5.12865 115.544 5.13468 111.983 5.14084C110.465 5.1411 108.953 5.13551 107.435 5.13577C107.22 5.13672 107.006 5.13767 106.786 5.13848C106.714 5.1368 106.637 5.13499 106.566 5.13331C106.387 5.12314 106.209 5.10698 106.025 5.10265C101.524 5.09271 97.0231 5.08277 92.5221 5.0848C89.1166 5.08263 85.7167 5.09855 82.3111 5.10237C82.204 5.09985 82.0908 5.10318 81.9837 5.10066C81.4062 5.09907 80.8228 5.09734 80.2453 5.09575C77.6852 5.09548 75.1194 5.08908 72.5593 5.08881C72.3095 5.07696 72.0539 5.05899 71.8039 5.0591C68.1664 5.05148 64.5288 5.04386 60.8912 5.04223C57.5274 5.04103 54.1574 5.05167 50.7934 5.05646C50.5017 5.0556 50.216 5.05487 49.9241 5.05999C49.7099 5.05496 49.4965 5.01403 49.2815 5.04489C48.8812 5.10134 48.459 5.07945 48.0906 5.30424C47.4503 5.69623 47.2555 6.63739 47.1727 7.62908C47.0689 7.74036 47.0766 7.92012 47.0607 8.08734C46.8564 9.9441 46.9134 11.8249 46.7921 13.6956C46.7357 14.5742 46.4782 15.4002 46.5346 16.2934C46.5204 16.6462 46.5061 16.999 46.4917 17.3578C46.1875 17.8894 46.5497 18.694 46.1628 19.1937C45.6241 19.3187 45.1395 19.6724 44.7391 20.2437C44.394 20.7383 44.0151 21.1544 43.636 21.5825C43.4389 21.6078 43.2527 21.6752 43.0595 21.7904C40.9035 23.0925 38.9054 25.0209 36.6732 26.016C36.228 26.215 35.7873 26.474 35.3471 26.7091C34.2044 26.9456 33.0861 27.4102 31.9247 27.4308C30.6798 27.4554 29.4402 27.2527 28.198 27.4151C26.5683 27.3469 24.9472 27.1652 23.3162 27.4082C21.9193 27.0581 20.5164 26.7139 19.1196 26.3639C18.3022 26.1831 17.4769 26.0859 16.6797 25.8098C15.7465 25.4886 14.8025 25.3766 13.8571 25.3245C12.1269 25.224 10.4147 25.6267 8.71673 26.1854C8.07123 26.0385 7.48861 26.5097 6.87717 26.6869C6.01254 26.7444 5.26322 27.469 4.45659 27.8451C3.75586 28.529 2.94614 29.0367 2.3714 29.9331C1.30845 31.5901 0.900983 33.7294 1.03646 36.073C1.11448 37.3138 1.24053 38.5379 1.59508 39.6655C1.74098 40.2975 1.84425 40.9703 2.23366 41.3745C2.22279 41.5837 2.26051 41.7522 2.34583 41.9218C3.15285 43.5569 4.24679 44.6361 5.41293 45.4297C7.82159 47.0605 10.3942 47.2885 13.0019 47.0325C13.2585 47.0086 13.5246 47.0867 13.7675 46.8829C13.9453 46.917 14.1276 47.017 14.2954 46.9671C15.7811 46.577 17.2857 46.6483 18.7724 46.2163C21.0383 45.5572 23.3442 45.4797 25.6319 45.1623C26.307 45.0644 26.9825 44.9486 27.6638 44.8389C28.4125 44.8984 29.1674 44.952 29.9162 45.0115C30.3469 45.1773 30.771 45.3728 31.2027 45.4967C32.5331 45.887 33.8633 46.2834 35.179 46.7932C36.4004 47.2648 37.4899 48.278 38.7261 48.6243C40.5809 49.4999 42.2451 50.8917 43.6356 53.0314C44.2563 53.9797 44.6626 55.1864 45.2162 56.205C45.8267 57.3327 46.0586 58.6131 46.0717 60.0859C46.0821 61.9237 45.9971 63.7653 46.2283 65.5844C46.3998 66.8993 46.6748 68.1209 47.2464 69.1339C47.5491 69.9311 47.9319 70.6165 48.4258 71.1369C49.4022 71.1359 50.3725 71.1407 51.349 71.1397C51.4561 71.1422 51.5633 71.1388 51.6764 71.1414C57.0524 71.148 62.4343 71.1547 67.8104 71.1612C68.9296 71.1635 70.0488 71.1659 71.1681 71.1682C71.311 71.1656 71.4598 71.1691 71.6027 71.1665C72.5791 71.1655 73.5495 71.1703 74.5259 71.1693C76.1512 71.1715 77.7765 71.1738 79.4018 71.1761C83.1585 71.1805 86.9092 71.1848 90.6658 71.1892C94.744 71.1952 98.8221 71.2012 102.9 71.2072C108.604 71.2155 114.307 71.2237 120.011 71.226C120.118 71.2285 120.225 71.225 120.338 71.2277C120.701 71.2302 121.058 71.2267 121.422 71.2292C127.845 71.2364 134.269 71.2436 140.699 71.251C141.134 71.2492 141.568 71.2535 141.997 71.2515C147.593 71.2573 153.19 71.263 158.78 71.2746C160.548 71.2742 162.316 71.2798 164.084 71.2795C165.531 71.2835 166.972 71.2815 168.419 71.2855C169.824 71.2886 171.234 71.2918 172.64 71.2889C177.117 71.2923 181.594 71.3016 186.065 71.3049C189.964 71.3127 193.864 71.3145 197.757 71.3221C197.864 71.3246 197.972 71.3212 198.085 71.3238C198.448 71.3264 198.805 71.3228 199.168 71.3253C200.466 71.3259 201.77 71.3266 203.068 71.3331C203.645 71.3347 204.223 71.3363 204.8 71.3379C205.092 71.3388 205.378 71.3395 205.669 71.3404C206.354 71.3385 207.039 71.3426 207.729 71.3409C209.64 71.3438 211.557 71.347 213.468 71.35C213.683 71.349 213.903 71.3482 214.117 71.3532C214.802 71.3513 215.487 71.3554 216.177 71.3537C216.406 70.976 216.78 70.7873 216.836 70.172C216.969 69.846 217.178 69.5695 217.182 69.1387C217.283 68.3749 217.367 67.5987 217.592 66.8857C217.682 66.6005 217.563 66.3403 217.54 66.0644C217.444 64.8112 217.193 63.6021 217.181 62.3269C217.328 61.6659 217.632 61.1104 217.726 60.4123C217.752 60.0897 217.916 59.9319 218.046 59.7255C218.318 59.5403 218.494 59.1733 218.709 58.8791C219.194 58.4895 219.503 57.7485 219.955 57.2803C221.121 56.0566 222.342 55.0199 223.608 54.0799C225.147 52.9369 226.691 51.8538 228.349 51.2283C228.756 50.8967 229.216 50.7998 229.606 50.4139C229.624 50.4083 229.643 50.3968 229.661 50.3613C230.171 50.1997 230.696 50.1522 231.191 49.8645C231.433 49.6966 231.689 49.7026 231.946 49.6847C232.934 49.684 233.901 49.3056 234.891 49.263C235.594 49.2376 236.295 49.0327 236.995 48.8935C237.054 48.8949 237.108 48.8842 237.168 48.8556C239.109 49.1167 241.058 48.7674 242.997 48.8608C243.545 49.1131 244.116 49.1266 244.67 49.367C246.008 49.9372 247.361 50.3999 248.706 50.9104C249.539 51.4267 250.43 51.5434 251.313 51.7018C252.036 51.8266 252.772 51.9277 253.506 51.885C254.036 51.8556 254.576 51.6947 255.091 51.8145C256.707 52.1937 258.297 52.2071 259.861 51.2502C261.207 50.7431 262.391 49.7712 263.363 48.1779C263.575 48.0034 263.782 47.8227 263.915 47.4906C264.478 46.5641 265.019 45.6131 265.374 44.4422C266.037 42.5543 265.98 40.6615 265.561 38.7542Z" fill="#C90117"/>
<path d="M71.6924 25.2637H84.4238V30.1287H76.6028V39.9306H83.3346V44.8136H76.6028V59.4805H71.6924V25.2637Z" fill="white"/>
<path d="M101.47 52.8317C101.47 57.619 99.1194 60.0186 94.4114 60.0305C89.7152 60.0305 87.3701 57.6309 87.3701 52.8317V31.9055C87.3701 27.1182 89.7152 24.7246 94.4114 24.7246C99.1194 24.7246 101.47 27.1182 101.47 31.9055V52.8317ZM96.5601 31.9055C96.5601 30.3736 95.8518 29.5956 94.4292 29.5837H94.3935C92.9829 29.5837 92.2805 30.3556 92.2805 31.9055V52.8317C92.2805 54.3756 92.9888 55.1535 94.4114 55.1535C95.8458 55.1535 96.5601 54.3816 96.5601 52.8317V31.9055Z" fill="white"/>
<path d="M119.386 52.8317C119.386 57.619 117.035 60.0186 112.327 60.0305C107.631 60.0305 105.286 57.6309 105.286 52.8317V31.9055C105.286 27.1182 107.631 24.7246 112.327 24.7246C117.035 24.7246 119.386 27.1182 119.386 31.9055V52.8317ZM114.476 31.9055C114.476 30.3736 113.768 29.5956 112.345 29.5837H112.309C110.899 29.5837 110.196 30.3556 110.196 31.9055V52.8317C110.196 54.3756 110.905 55.1535 112.327 55.1535C113.762 55.1535 114.476 54.3816 114.476 52.8317V31.9055Z" fill="white"/>
<path d="M132.392 14.1748H137.302V52.8318C137.302 57.619 134.951 60.0186 130.243 60.0306C125.547 60.0306 123.202 57.631 123.202 52.8318V31.9235C123.202 27.1363 125 24.7367 128.595 24.7247C130.154 24.7247 131.422 25.0897 132.392 25.8198V14.1748ZM132.392 31.9056C132.38 30.3736 131.672 29.6017 130.261 29.6017C128.827 29.6017 128.113 30.3736 128.113 31.9235V52.8318C128.113 54.3757 128.821 55.1536 130.243 55.1536C131.678 55.1536 132.392 54.3817 132.392 52.8318V31.9056Z" fill="white"/>
<path d="M150.271 25.2637H155.181V39.9246H159.466V25.2637H164.377V59.4745H159.466V44.8136H155.181V59.4805H150.271V25.2637Z" fill="white"/>
<path d="M182.638 52.8322C182.638 57.6195 180.287 60.0191 175.579 60.031C170.883 60.031 168.538 57.6314 168.538 52.8322V25.2637H173.449V52.8322C173.449 54.3761 174.157 55.154 175.579 55.154C177.014 55.154 177.728 54.3821 177.728 52.8322V25.2637H182.638V52.8322Z" fill="white"/>
<path d="M193.322 25.2633H197.119V30.1283H193.322V59.4741H188.411V30.1283H184.888V25.2633H188.411V14.1748H193.322V25.2633Z" fill="white"/>
</svg>
