<svg width="230" height="38" viewBox="0 0 230 38" fill="none" xmlns="http://www.w3.org/2000/svg">
<path d="M10.5667 14.3214C13.431 14.3214 16.9214 14.1017 18.2259 13.6913C18.2259 16.3622 16.6663 17.4317 15.5125 17.5473C13.9528 17.6571 12.0162 17.8421 9.74919 17.8421C9.22736 17.8421 8.67075 17.8421 8.14892 17.9173C7.96339 18.4376 7.85322 18.9926 7.70247 19.5476C6.7342 23.8083 6.25296 26.219 6.25296 27.6643C6.25296 28.4043 6.62403 29.1096 6.62403 29.52C5.77172 30.1155 4.24683 30.4103 2.98285 30.4103C1.16226 30.4103 0.565063 29.7802 0.565063 28.4101C0.565063 27.5602 0.750601 26.67 0.976726 25.7392C1.31301 24.2592 1.60871 22.8139 1.97979 21.3282C3.84097 14.2867 5.36006 8.95072 5.36006 5.84046C5.36006 5.28546 5.39485 4.61486 5.17452 4.69001C4.69328 4.79985 4.20624 4.79985 3.98592 4.79985C3.87575 4.76517 3.83517 4.58016 3.87576 4.1697C3.87576 3.8344 3.95113 3.46441 4.09608 3.13488C4.76286 1.79943 5.06436 1.53928 6.21237 1.42944C9.33173 1.1346 12.4917 0.984291 15.6516 0.984291C17.1359 0.984291 18.5159 0.833984 19.5537 0.833984C21.038 0.833984 21.6352 0.984291 22.1164 1.49881C21.8555 3.27941 20.8177 5.35484 19.1826 5.35484C18.7362 5.35484 18.0288 4.42985 16.0633 4.42985H14.6891C13.6513 4.42985 12.683 4.3547 11.9003 4.3547H10.1898C10.5609 4.76517 10.7117 5.13516 10.7117 5.53984C10.7117 5.75953 10.7117 5.90983 10.6769 6.16998C10.2652 8.24542 9.52306 11.6158 8.85629 14.3214H10.5667Z" fill="#FF513E"/>
<path d="M28.7424 9.61621C32.7952 9.61621 35.5435 12.0963 35.5435 16.2125C35.5435 23.1788 30.1165 30.2202 23.501 30.2202C19.4133 30.2202 16.6998 27.6245 16.6998 23.3291C16.6998 19.7332 17.9638 16.5131 20.3062 13.7671C22.6081 11.206 25.5071 9.61621 28.7424 9.61621ZM27.6234 12.3565C24.3127 12.3565 22.1616 19.4731 22.1616 23.7338C22.1616 25.919 22.8284 27.5146 24.6142 27.5146C27.8843 27.5146 30.0006 20.4732 30.0006 16.2125C30.0064 14.0214 29.4092 12.3565 27.6234 12.3565Z" fill="#FF513E"/>
<path d="M48.6252 9.61621C52.6781 9.61621 55.4263 12.0963 55.4263 16.2125C55.4263 23.1788 49.9994 30.2202 43.3838 30.2202C39.2961 30.2202 36.5826 27.6245 36.5826 23.3291C36.5826 19.7332 37.8466 16.5131 40.189 13.7671C42.4967 11.206 45.3957 9.61621 48.6252 9.61621ZM47.512 12.3565C44.2013 12.3565 42.0502 19.4731 42.0502 23.7338C42.0502 25.919 42.717 27.5146 44.5028 27.5146C47.7729 27.5146 49.8892 20.4732 49.8892 16.2125C49.8892 14.0214 49.2978 12.3565 47.512 12.3565Z" fill="#FF513E"/>
<path d="M78.028 22.918C78.1788 22.918 78.2484 23.0278 78.2484 23.2533C78.2484 25.9935 74.3115 29.9594 71.6676 29.9594C69.5107 29.9594 68.3221 28.6991 68.3221 25.9184C68.3221 25.0281 68.4323 23.8082 68.5424 23.0625C65.4926 28.0632 62.3733 30.1791 59.8105 30.1791C57.4681 30.1791 56.0592 28.2135 56.0592 25.2478C56.0592 18.3162 61.4862 9.82944 67.8061 9.82944C69.2556 9.82944 70.2934 10.1994 71.3719 10.7949C71.9285 8.60961 72.2242 6.60934 72.2242 5.0889C72.2242 4.49344 72.1488 3.93845 71.8531 3.45861C73.1519 2.71863 74.5666 2.34863 75.645 2.34863C77.0598 2.34863 77.7265 3.08862 77.7265 4.42406C77.7265 5.57451 77.5062 6.64981 77.2453 7.75979C75.3841 15.6915 73.5635 21.3628 73.5635 24.5078C73.5635 25.2478 73.7839 25.7334 73.9752 26.0629C74.3463 25.9877 75.0536 25.4674 75.7958 24.7679C76.9496 23.5076 77.6975 22.918 78.028 22.918ZM70.45 15.1365C70.1891 13.6912 68.8903 12.6911 67.4756 12.6911C64.5012 12.6911 61.4572 19.0677 61.4572 24.3632C61.5326 25.6582 61.9036 26.2884 62.6458 26.2884C63.6489 26.2884 65.2839 24.4731 67.1451 21.3975C68.4033 19.3568 69.5165 17.212 70.45 15.1365Z" fill="#FF513E"/>
<path d="M113.269 10.8005C113.269 21.3279 105.053 30.4043 96.0949 30.4043C93.4916 30.4043 90.9288 29.5545 88.8473 27.9589C88.8125 27.6236 88.8821 27.2536 89.0329 26.5483C90.5577 19.767 92.5291 12.2458 93.3814 7.60929C93.4568 7.23929 93.4916 6.94446 93.4916 6.719C93.4916 5.60901 92.3783 5.93854 92.3783 5.1234C92.3783 4.15795 92.674 3.15781 93.2306 2.34267C95.6078 1.45238 98.9185 0.74707 102.113 0.74707C108.996 0.758633 113.269 3.75905 113.269 10.8005ZM107.691 11.8006C107.691 6.94446 105.499 4.05389 101.412 4.05389C100.814 4.05389 99.5157 4.2042 98.5127 4.42388C98.6982 4.97887 98.7736 5.53386 98.7736 6.12932C98.7736 8.91005 96.0253 19.2467 94.8367 25.0279C95.173 26.4732 96.1007 27.0282 98.2576 27.0282C103.603 27.0282 107.691 19.2467 107.691 11.8006Z" fill="#454342"/>
<path d="M129.843 24.0286C130.365 24.9536 130.29 26.104 129.623 26.9539C128.991 27.7343 128.063 28.4338 126.834 28.9541C124.973 29.804 123.042 30.2144 120.961 30.2144C116.612 30.2144 114.125 28.324 113.934 24.5084C113.748 20.6929 115.087 16.9467 117.65 14.1718C120.138 11.206 123.338 9.61621 126.643 9.61621C129.762 9.61621 131.252 10.9517 131.212 13.4722C131.212 15.9928 127.942 19.2187 122.926 20.9935C121.738 21.404 119.32 22.4735 119.285 23.4389C119.25 24.3292 119.361 25.1039 119.697 25.5895C120.514 26.7746 121.854 27.4799 123.263 27.2949C125.907 27.029 127.913 25.8843 129.843 24.0286ZM119.662 20.9183C120.294 19.5482 121.407 19.0626 122.781 18.3226C125.159 17.0276 125.831 15.802 126.202 14.5071C126.573 13.2121 126.127 12.0963 124.788 12.0963C122.781 12.0963 121.106 14.6516 120.027 19.2476C120.033 19.2476 119.882 19.8777 119.662 20.9183Z" fill="#454342"/>
<path d="M140.587 25.2532C142.257 24.0276 143.561 22.9927 143.933 22.9927C144.228 22.9927 143.933 23.698 142.779 25.548C141.068 28.2189 137.392 30.0688 135.531 30.0688C133.56 30.0688 132.221 28.9936 132.221 26.6984C132.186 25.8833 132.331 24.993 132.557 23.5882C132.632 23.2933 132.667 22.958 132.708 22.6227C131.368 23.5882 130.812 23.9582 130.701 23.9582C130.551 23.9582 131.409 23.1777 132.522 22.2181C132.487 22.2527 132.597 22.1429 132.858 21.9232C134.232 16.0669 135.867 10.1008 137.619 4.31961C137.804 3.76462 138.285 3.13446 138.882 2.724C139.48 2.31354 140.146 2.2037 140.703 2.24417C141.781 2.31932 142.819 2.61416 143.863 3.39462C144.014 3.54493 144.124 3.72993 144.159 3.94961C144.159 3.9843 144.269 4.42945 144.269 5.28506C144.269 5.65505 144.269 6.10019 144.193 6.58003C144.008 8.13516 143.301 9.99091 142.524 11.8062C141.26 14.6968 139.404 17.2173 138.697 18.1423L138.662 18.362C138.587 18.6973 138.511 19.0673 138.401 19.4373C138.14 20.6224 137.474 23.698 137.474 24.623C137.474 25.363 137.474 26.1781 137.845 26.1781C138.917 26.1781 139.804 25.8081 140.587 25.2532ZM139.213 16.0611C140.03 14.876 141.034 13.2052 141.816 11.3553C142.599 9.61514 143.266 7.83455 143.417 6.42394C143.451 5.90364 143.492 5.4238 143.451 5.05381C143.451 4.68381 142.97 4.53351 142.785 4.86881C142.674 5.05381 142.564 5.27927 142.489 5.49896C141.857 7.16393 141.3 8.83468 140.819 10.4996C140.216 12.3207 139.694 14.2054 139.213 16.0611Z" fill="#454342"/>
<path d="M152.183 24.884C153.818 23.1034 154.636 22.6236 154.636 23.3635C154.636 23.7335 154.45 24.3984 154.039 25.3638C153.001 27.7746 149.986 30.0697 148.055 30.0697C146.084 30.0697 144.895 28.9597 144.744 26.6588C144.669 25.8437 144.744 23.4734 145.487 20.6927C146.119 18.4669 146.455 16.2816 146.716 14.9115C146.867 14.1715 146.901 13.4662 146.901 12.9112C146.901 12.2059 146.716 11.6163 146.345 11.0555C147.643 10.5756 148.907 10.275 150.061 10.275C150.693 10.275 151.476 10.3849 151.922 10.8705C152.369 11.3503 152.52 11.9805 152.369 12.7956C152.259 13.3911 152.149 13.9807 151.957 14.6514C151.401 16.7268 150.728 19.0624 150.508 20.0972C150.212 21.3922 149.951 23.5081 149.951 24.5834C149.951 25.3234 149.986 26.179 150.363 26.179C150.809 26.179 151.441 25.5835 152.183 24.884ZM153.969 0.793945C152.183 0.793945 150.438 1.12926 148.913 1.71893C148.989 1.90393 149.099 2.05424 149.099 2.23923C149.134 3.71921 148.502 5.83511 148.502 6.9104C148.502 7.50586 148.913 8.28053 150.473 7.94522C152.63 7.50007 152.589 7.53476 154.224 5.01996C155.193 3.53999 155.523 2.90985 155.709 2.20455C155.743 2.01955 155.743 1.90971 155.743 1.7594C155.714 1.19862 155.123 0.793945 153.969 0.793945Z" fill="#454342"/>
<path d="M169.837 11.3561C169.837 10.6913 169.426 9.46565 168.985 8.98582C169.431 8.91066 170.063 8.87598 170.359 8.87598C173.038 8.87598 174.226 9.58128 174.226 11.5816C174.226 13.1772 172.997 16.0677 170.324 20.1781C166.532 26.0344 163.262 30.22 159.064 30.22C158.803 30.22 158.543 30.22 158.282 30.1448C158.282 29.6245 158.357 28.8498 158.357 28.2197C158.392 25.5488 157.945 20.6233 157.203 16.2874C156.681 13.287 156.31 11.7319 155.493 11.1017C156.942 10.2114 158.357 9.73159 159.656 9.73159C161.215 9.73159 162.143 10.8069 162.294 13.102C162.665 15.8076 162.775 19.6231 162.775 22.7739C162.775 23.6237 162.775 24.4388 162.74 25.2944C164.897 22.479 166.492 19.8833 167.756 17.5882C169.246 14.952 169.837 12.8361 169.837 11.3561Z" fill="#454342"/>
<path d="M189.759 24.0286C190.281 24.9536 190.206 26.104 189.539 26.9539C188.907 27.7343 187.979 28.4338 186.75 28.9541C184.889 29.804 182.958 30.2144 180.877 30.2144C176.528 30.2144 174.041 28.324 173.85 24.5084C173.664 20.6929 175.003 16.9467 177.566 14.1718C180.054 11.206 183.254 9.61621 186.559 9.61621C189.678 9.61621 191.168 10.9517 191.128 13.4722C191.128 15.9928 187.858 19.2187 182.842 20.9935C181.654 21.404 179.236 22.4735 179.201 23.4389C179.166 24.3292 179.277 25.1039 179.613 25.5895C180.43 26.7746 181.77 27.4799 183.179 27.2949C185.823 27.029 187.829 25.8843 189.759 24.0286ZM179.578 20.9183C180.21 19.5482 181.323 19.0626 182.697 18.3226C185.075 17.0276 185.747 15.802 186.118 14.5071C186.489 13.2121 186.043 12.0963 184.704 12.0963C182.697 12.0963 181.022 14.6516 179.943 19.2476C179.949 19.2476 179.804 19.8777 179.578 20.9183Z" fill="#454342"/>
<path d="M208.014 25.1028C206.785 27.583 203.515 30.0342 201.55 30.0342C199.468 30.0342 198.094 28.9589 198.39 26.5134C198.54 24.993 199.242 22.6979 199.654 21.3971C200.025 20.0617 201.7 15.246 201.921 14.4655C202.141 13.7255 202.292 13.3556 201.81 13.4307C201.474 13.5059 199.99 13.7255 198.54 13.7255C198.279 14.4655 197.874 15.616 197.201 16.8358C196.534 18.0209 195.676 19.2465 194.859 19.8767C193.89 20.582 192.777 20.9115 191.774 20.5068C193.67 18.2811 194.377 16.4311 194.522 13.7255C191.026 12.4306 194.076 7.60909 195.636 7.9444C195.601 8.90985 193.479 11.4998 202.773 9.90999C204.002 9.61515 206.675 8.94454 207.156 11.1703C207.678 13.6909 206.078 16.541 205.295 19.0269C204.663 21.137 203.956 22.9523 203.846 24.2877C203.811 25.1028 203.735 26.0278 204.182 25.9931C204.594 25.9585 205.295 25.3283 206.153 24.623C208.873 21.8076 209.504 22.062 208.014 25.1028Z" fill="#454342"/>
<path d="M204.969 35.4801C204.969 34.7748 205.265 33.8498 205.636 33.0694C205.972 33.3642 206.9 33.6648 207.497 33.6648C209.799 33.6648 212.066 31.7744 213.777 29.3289C214.038 28.959 214.113 28.3288 214.113 27.6235C214.113 26.9934 214.038 26.3285 213.962 25.7678C212.924 17.3562 211.62 12.13 210.28 11.0952C211.765 10.2049 213.179 9.72508 214.478 9.72508C215.852 9.72508 216.78 10.6905 217.081 12.766C217.638 16.5468 218.119 21.1428 218.38 24.8081C222.062 19.6224 224.66 14.6159 224.66 11.9508C224.66 11.286 224.248 10.0604 223.807 9.58055C224.254 9.50539 224.886 9.4707 225.181 9.4707C227.895 9.4707 229.083 10.2858 229.083 11.9913C229.083 14.3269 225.216 20.8133 219.308 28.5543C213.846 35.7807 210.576 37.6711 207.822 37.6711C206.222 37.6711 205.219 37.0757 204.998 35.8906C204.969 35.7749 204.969 35.6304 204.969 35.4801Z" fill="#454342"/>
</svg>
