<svg width="470" height="115" viewBox="0 0 470 115" fill="none" xmlns="http://www.w3.org/2000/svg">
<path d="M158.65 101.245C158.65 58.5257 124.014 23.8896 81.2941 23.8896C38.5743 23.8896 3.95898 58.5257 3.95898 101.245H158.65Z" fill="#F55539"/>
<path d="M92.2452 16.5684C93.671 10.5301 89.9319 4.47919 83.8936 3.05337C77.8552 1.62756 71.8044 5.36673 70.3785 11.405C68.9527 17.4434 72.6919 23.4942 78.7302 24.92C84.7685 26.3459 90.8194 22.6067 92.2452 16.5684Z" fill="#F55539"/>
<path d="M17.1816 86.0519C17.5755 79.2947 19.7311 72.6825 22.7159 66.5264C25.7422 60.3703 29.8255 54.7116 34.7587 49.8613C39.6712 44.9903 45.475 41.052 51.714 38.1709C57.9738 35.3727 64.6481 33.5693 71.3846 33.1548C65.1456 35.725 59.1967 38.4818 53.6624 41.8397C48.1488 45.2183 43.0291 49.1358 38.469 53.613C33.9089 58.0902 29.8463 63.1063 26.3226 68.5577C24.5607 71.273 22.8818 74.0713 21.3894 77.0146C19.8348 79.9165 18.4668 82.922 17.1816 86.0519Z" fill="white"/>
<path d="M176.766 55.1893C177.554 55.1893 179.999 55.7283 184.083 56.8268C185.016 48.743 187.669 39.9545 192.001 30.4819C193.535 27.0204 195.359 25.3 197.473 25.3C197.867 25.3 198.261 25.7145 198.613 26.5644C198.986 27.3935 199.173 28.4299 199.173 29.6735C199.173 31.1452 198.385 35.2285 196.851 41.8821C195.296 48.5357 194.281 54.3395 193.783 59.2727C197.038 60.0189 199.919 60.392 202.406 60.392C204.893 60.392 207.173 59.7287 209.246 58.4229C211.319 57.117 213.102 55.4173 214.573 53.3446C217.641 48.9503 219.154 43.6855 219.154 37.5086C219.113 26.1084 214.573 20.4082 205.536 20.4082C202.323 20.4497 196.664 21.8799 188.519 24.6989C186.943 25.2378 185.554 25.5073 184.373 25.5073C183.191 25.5073 182.59 25.1549 182.59 24.4709C182.59 23.5381 183.274 22.4188 184.663 21.1337C186.052 19.8486 187.814 18.6257 189.99 17.4234C195.317 14.563 200.499 13.1328 205.536 13.1328C212.438 13.1328 218.118 14.9776 222.553 18.6878C227.777 23.0821 230.368 29.7357 230.326 38.6693C230.326 42.4625 229.725 46.2142 228.544 49.9245C227.362 53.6348 225.559 56.9097 223.134 59.8116C220.709 62.6928 217.662 65.035 213.951 66.7968C210.241 68.5794 205.888 69.4707 200.851 69.4707C198.82 69.4707 196.271 69.0354 193.162 68.1441C192.809 69.0769 191.959 69.5536 190.571 69.5536C188 69.5536 186.259 69.1184 185.347 68.2685C184.435 67.4187 183.896 65.9885 183.751 64.0193C181.388 62.6928 179.419 61.304 177.864 59.8738C176.31 58.4436 175.543 57.1792 175.543 56.1014C175.584 55.4795 175.978 55.1893 176.766 55.1893Z" fill="#F55539"/>
<path d="M250.909 60.8065C254.764 60.8065 258.474 59.2726 262.081 56.2257C263.408 55.0857 264.506 54.0493 265.335 53.0751C266.164 52.1216 266.807 51.6241 267.263 51.6241C267.947 51.6241 268.299 52.3081 268.299 53.6969C268.299 55.0857 267.926 56.6195 267.18 58.3192C266.434 60.0188 265.211 61.6771 263.47 63.3146C259.221 67.315 253.417 69.3049 245.996 69.3049C240.13 69.3049 236.13 67.1906 234.016 62.9415C233.27 61.4698 232.896 59.3348 232.896 56.578C232.896 53.8213 233.435 50.9401 234.534 47.9553C235.612 44.9705 237.063 42.4003 238.866 40.2239C240.669 38.0475 242.742 36.3685 245.126 35.1456C247.489 33.9434 250.018 33.3423 252.712 33.3423C255.407 33.3423 257.48 34.0056 258.93 35.3321C260.381 36.6587 261.107 38.3998 261.107 40.5141C261.107 42.6283 260.568 44.3694 259.511 45.7375C258.454 47.1055 257.086 48.2248 255.407 49.1368C253.728 50.0488 251.862 50.8572 249.81 51.5827C247.758 52.3081 245.748 53.0958 243.779 53.9871V55.8319C243.82 57.6144 244.566 58.8581 245.996 59.6043C247.468 60.3712 249.085 60.765 250.909 60.8065ZM249.644 39.9337C247.074 39.9337 245.312 42.9185 244.317 48.8881C245.354 48.2041 246.328 47.5822 247.24 47.0433C248.152 46.5044 248.96 45.9862 249.644 45.4887C251.116 44.4109 251.883 43.1672 251.945 41.7785C251.945 40.5555 251.178 39.9337 249.644 39.9337Z" fill="#F55539"/>
<path d="M281.109 69.0982C274.061 69.1396 269.252 66.5072 266.682 61.1802C265.791 59.3147 265.355 56.9517 265.355 54.112C265.355 51.2724 265.604 48.2461 266.102 45.054C267.097 38.6492 268.983 32.7211 271.802 27.2904C273.232 24.5336 274.828 22.1706 276.611 20.1808C280.507 15.8487 284.839 13.693 289.628 13.7345C291.742 13.7345 293.421 14.3148 294.623 15.4756C295.825 16.6364 296.426 18.2946 296.426 20.471C296.426 22.6474 295.784 24.8238 294.499 27.0209C293.214 29.2181 291.576 31.4774 289.586 33.8196C287.596 36.1619 285.378 38.6285 282.974 41.178C280.549 43.7482 278.186 46.5257 275.864 49.5312V52.4953C275.864 55.2521 276.466 57.2834 277.647 58.5685C278.828 59.8536 280.217 60.4962 281.793 60.4962C286.042 60.4962 289.793 58.4027 293.048 54.2157C294.374 52.4953 295.39 51.6247 296.074 51.6247C296.758 51.6247 297.11 52.4746 297.11 54.1328C297.11 55.8117 296.654 57.5321 295.742 59.2733C294.83 61.0144 293.628 62.6311 292.156 64.0821C290.685 65.533 288.964 66.7352 287.057 67.668C285.15 68.6007 283.119 69.0982 281.109 69.0982ZM285.088 29.3632C286.125 28.078 286.933 26.9173 287.534 25.8809C288.135 24.8445 288.425 23.7667 288.425 22.6681C288.425 21.5488 288.032 21.0099 287.244 21.0099C285.524 21.0099 283.596 22.7925 281.502 26.3369C279.409 29.8814 277.834 34.5451 276.797 40.3281C278.476 37.7579 280.01 35.6229 281.419 33.8818C282.829 32.1407 284.052 30.6483 285.088 29.3632Z" fill="#F55539"/>
<path d="M301.589 69.0977C296.656 69.0977 294.189 64.4754 294.189 55.2516C294.189 50.2148 294.811 45.6547 296.034 41.5713C297.962 35.2494 300.138 32.0988 302.543 32.0988C303.973 32.0988 305.113 33.0522 305.942 34.9799C306.626 36.4516 306.958 37.9233 306.896 39.3535C306.896 41.3226 306.294 44.8049 305.113 49.7795C303.973 54.1116 303.413 56.8062 303.413 57.8426C303.413 58.879 303.662 59.5837 304.201 59.9983C304.719 60.3921 305.341 60.5994 306.046 60.5994C306.75 60.5994 307.662 60.1226 308.74 59.1899C309.818 58.2571 310.917 57.2207 311.995 56.1222C313.072 55.0029 314.088 53.9872 315 53.0545C315.912 52.1217 316.534 51.645 316.886 51.645C317.57 51.645 317.923 52.4948 317.923 54.153C317.923 57.6146 316.182 60.9725 312.699 64.2474C309.259 67.5224 305.548 69.1392 301.589 69.0977ZM304.636 26.1085C303.31 24.1393 302.626 22.0044 302.626 19.7451C302.626 17.4857 302.978 15.5995 303.703 14.0864C304.408 12.5733 305.092 11.4747 305.735 10.7492C306.377 10.0445 307.124 9.67139 307.953 9.67139C309.341 9.67139 310.585 10.687 311.725 12.7391C312.865 14.7911 313.425 16.4908 313.425 17.8796C313.425 20.4498 312.533 22.4604 310.73 23.9113C308.927 25.383 306.896 26.1085 304.636 26.1085Z" fill="#F55539"/>
<path d="M343.625 51.4171C344.516 51.4171 344.952 52.1633 344.952 53.6764C344.952 55.1896 344.579 56.7856 343.812 58.5267C343.045 60.2471 341.884 61.9261 340.329 63.5221C338.775 65.1181 336.785 66.4862 334.381 67.6262C331.955 68.7662 329.116 69.3259 325.841 69.3259C322.566 69.3259 319.685 68.3517 317.218 66.4032C314.751 64.4548 313.508 61.6359 313.508 57.9671C313.508 54.2983 314.088 50.9611 315.249 47.9763C316.41 44.9915 317.944 42.4213 319.83 40.2449C321.737 38.0685 323.892 36.3895 326.297 35.1666C328.722 33.9644 331.002 33.3633 333.178 33.3633C336.972 33.3633 338.879 34.8764 338.879 37.8819C338.879 39.6023 338.526 40.9911 337.801 42.0275C337.075 43.0639 336.35 43.582 335.624 43.582C334.629 43.582 333.78 43.2297 333.033 42.5457C332.287 41.8616 331.479 41.4885 330.587 41.4678C329.696 41.4471 328.846 41.8824 328.038 42.7529C327.23 43.6442 326.546 44.7843 326.007 46.1523C324.929 48.9091 324.369 52.1426 324.369 55.8528C324.411 57.6354 325.24 58.962 326.815 59.8533C327.893 60.4544 329.178 60.7446 330.67 60.786C332.142 60.8068 333.572 60.33 334.92 59.3351C336.267 58.3402 337.511 57.2831 338.651 56.1223C339.791 54.9616 340.785 53.8837 341.656 52.9095C342.527 51.9146 343.19 51.4171 343.625 51.4171Z" fill="#F55539"/>
<path d="M350.132 69.0977C345.199 69.0977 342.732 64.4754 342.732 55.2516C342.732 50.2148 343.354 45.6547 344.577 41.5713C346.505 35.2494 348.681 32.0988 351.086 32.0988C352.516 32.0988 353.656 33.0522 354.485 34.9799C355.169 36.4516 355.501 37.9233 355.438 39.3535C355.438 41.3226 354.837 44.8049 353.656 49.7795C352.516 54.1116 351.956 56.8062 351.956 57.8426C351.956 58.879 352.205 59.5837 352.744 59.9983C353.262 60.3921 353.884 60.5994 354.589 60.5994C355.293 60.5994 356.205 60.1226 357.283 59.1899C358.361 58.2571 359.46 57.2207 360.538 56.1222C361.615 55.0029 362.631 53.9872 363.543 53.0545C364.455 52.1217 365.077 51.645 365.429 51.645C366.113 51.645 366.466 52.4948 366.466 54.153C366.466 57.6146 364.725 60.9725 361.242 64.2474C357.801 67.5224 354.091 69.1392 350.132 69.0977ZM353.179 26.1085C351.853 24.1393 351.189 22.0251 351.189 19.7451C351.189 17.4857 351.542 15.5995 352.267 14.0864C352.972 12.5733 353.656 11.4747 354.298 10.7492C354.941 10.0445 355.687 9.67139 356.516 9.67139C357.905 9.67139 359.149 10.687 360.289 12.7391C361.429 14.7911 361.988 16.4908 361.988 17.8796C361.988 20.4498 361.097 22.4604 359.294 23.9113C357.47 25.383 355.438 26.1085 353.179 26.1085Z" fill="#F55539"/>
<path d="M392.688 62.5891C388.792 67.1699 384.107 69.4707 378.656 69.4707C373.204 69.4707 369.121 68.0819 366.406 65.2837C363.69 62.5062 362.364 59.0239 362.405 54.8784C362.364 49.0124 364.209 43.9549 367.96 39.7057C371.712 35.4565 376.624 33.3423 382.677 33.3423C385.434 33.3423 387.652 33.6947 389.331 34.3787C392.232 35.5602 393.704 36.6794 393.704 37.7158C393.704 38.5035 391.673 38.918 387.589 38.9388C383.506 38.9595 380.107 40.369 377.371 43.1672C374.635 45.9447 373.267 49.4684 373.267 53.7176C373.267 55.9355 373.909 57.801 375.236 59.3141C376.542 60.8272 378.386 61.5734 380.791 61.5734C383.174 61.5734 385.164 61.076 386.74 60.1018C383.237 57.7388 381.495 54.298 381.495 49.8208C381.454 47.4579 382.304 45.3022 384.045 43.3538C385.786 41.4054 388.045 40.4104 390.781 40.3897C393.518 40.369 395.487 41.1152 396.668 42.649C397.85 44.1829 398.451 46.1313 398.451 48.5357C398.451 50.9401 397.891 53.4482 396.751 56.122H397.186C399.363 56.0806 401.228 55.3137 402.804 53.8213C403.405 53.2202 403.902 52.702 404.317 52.2667C404.731 51.8314 405.166 51.6034 405.602 51.6034C406.286 51.6034 406.638 52.4118 406.638 54.0493C406.638 57.0548 405.747 59.3141 403.964 60.8272C402.182 62.3404 400.233 63.0866 398.078 63.0866C395.922 63.0866 394.16 62.8793 392.688 62.5891ZM392.025 54.0078C392.854 52.2252 393.29 50.5048 393.29 48.8259C393.29 47.1469 392.751 46.3178 391.652 46.3178C391.217 46.3178 390.844 46.6495 390.533 47.2713C390.243 47.9139 390.097 48.5357 390.097 49.1161C390.097 51.0852 390.74 52.7227 392.025 54.0078Z" fill="#F55539"/>
<path d="M425.975 37.6536C425.975 34.3579 428.545 32.6997 433.665 32.6997C434.95 32.6997 435.759 33.1143 436.07 33.9641C436.38 34.8139 436.546 36.0783 436.546 37.8195C436.546 40.2446 436.007 43.9963 434.909 49.0746C433.81 54.1529 433.313 57.5937 433.354 59.3555C433.354 60.2054 433.624 60.6199 434.163 60.6199C434.909 60.6199 435.821 60.1432 436.899 59.2104C437.976 58.2777 439.075 57.2413 440.153 56.1427C441.231 55.0442 442.246 54.0078 443.158 53.075C444.07 52.1423 444.692 51.6656 445.045 51.6656C445.729 51.6656 446.081 52.5154 446.081 54.1736C446.081 57.6351 444.381 60.9516 440.982 64.1644C435.261 67.5223 431.634 69.2012 430.1 69.2012C429.955 69.2012 429.83 69.1805 429.727 69.1183C427.861 69.1183 426.535 68.4965 425.768 67.2735C425.001 66.0506 424.524 64.496 424.317 62.6098C423.322 64.4338 421.975 66.0091 420.254 67.315C418.534 68.6208 416.544 69.2841 414.326 69.2841C410.429 69.2841 407.424 68.5379 405.33 67.0662C403.237 65.5946 402.18 63.3974 402.18 60.4748C402.18 59.1897 402.366 58.0082 402.739 56.9304C403.112 55.8526 403.714 54.5053 404.543 52.9299L406.698 34.731C408.232 33.5495 410.429 32.9484 413.29 32.9484C415.549 32.9484 416.834 34.4201 417.145 37.3842C417.394 39.8093 417.29 41.965 416.813 43.8512C416.337 45.7582 415.715 48.1419 414.927 51.023C414.14 53.9042 413.746 56.4537 413.746 58.6715C413.746 60.4541 414.865 61.3454 417.083 61.3454C419.508 61.3454 421.602 59.2312 423.363 54.982C424.752 51.7277 425.685 48.1004 426.182 44.0999C426.141 43.7061 426.099 43.2087 426.079 42.5868C426.058 41.965 426.037 41.3639 425.996 40.7628C425.975 40.1617 425.954 39.5813 425.954 38.9802V37.6536H425.975Z" fill="#F55539"/>
<path d="M459.286 33.0322C462.581 33.0115 465.048 33.6333 466.686 34.877C468.323 36.1414 469.131 37.9447 469.131 40.2869C469.131 42.6292 468.427 44.619 467.017 46.2772C465.608 47.9355 463.887 49.0962 461.877 49.801C463.307 51.2726 464.592 52.7857 465.753 54.3196C466.914 55.8534 467.494 57.4495 467.494 59.1284C467.494 62.4241 466.188 64.9944 463.576 66.777C460.965 68.5803 457.317 69.4715 452.653 69.4715C447.989 69.4715 444.507 68.5388 442.185 66.694C439.864 64.8493 438.703 62.7558 438.703 60.3928C438.703 58.0506 439.284 55.9156 440.444 53.988C441.605 52.0603 442.849 51.1068 444.175 51.1068C444.963 51.1068 445.523 51.397 445.875 51.9566C446.227 52.5163 446.87 54.1745 447.803 56.8691C448.155 57.864 448.715 58.7968 449.502 59.6881C451.326 61.7194 454.207 62.7143 458.166 62.7143C457.565 60.8488 456.633 59.2321 455.327 57.864C454.021 56.5167 452.715 55.1902 451.451 53.905C450.166 52.6199 449.026 51.2519 448.051 49.801C447.056 48.35 446.58 46.6296 446.58 44.6605C446.58 41.116 447.906 38.2142 450.58 35.9963C453.067 34.0479 455.969 33.053 459.286 33.0322ZM458.996 46.754C460.965 44.6398 461.96 42.9401 461.96 41.655C461.96 41.0539 461.752 40.5357 461.338 40.0589C460.923 39.5822 460.322 39.3542 459.534 39.3542C458.747 39.3542 458.001 39.4578 457.275 39.6444C456.55 39.8517 455.99 39.9968 455.534 40.0797C455.513 41.9659 456.674 44.1837 458.996 46.754Z" fill="#F55539"/>
<path d="M185.286 94.2607V100.438H195.09V103.63H185.286V111.403H181.514V91.0894H196.334V94.2607H185.286Z" fill="#06C167"/>
<path d="M206.553 110.346C204.895 109.455 203.589 108.19 202.635 106.594C201.682 104.998 201.205 103.216 201.205 101.247C201.205 99.2774 201.682 97.4949 202.635 95.8988C203.589 94.3028 204.895 93.0591 206.553 92.1471C208.211 91.2351 210.077 90.7998 212.149 90.7998C214.222 90.7998 216.088 91.2558 217.746 92.1471C219.404 93.0384 220.71 94.2821 221.663 95.8781C222.617 97.4741 223.094 99.2567 223.094 101.247C223.094 103.236 222.617 105.04 221.663 106.615C220.71 108.19 219.404 109.434 217.746 110.346C216.088 111.237 214.222 111.693 212.149 111.693C210.077 111.693 208.211 111.237 206.553 110.346ZM215.797 107.465C216.875 106.864 217.725 106.014 218.347 104.915C218.969 103.817 219.28 102.594 219.28 101.247C219.28 99.8993 218.969 98.6763 218.347 97.5778C217.725 96.4792 216.875 95.6294 215.797 95.0283C214.72 94.4272 213.497 94.1162 212.149 94.1162C210.802 94.1162 209.579 94.4272 208.501 95.0283C207.423 95.6294 206.574 96.4999 205.952 97.5778C205.33 98.6556 205.019 99.8993 205.019 101.247C205.019 102.594 205.33 103.817 205.952 104.915C206.574 106.014 207.423 106.864 208.501 107.465C209.579 108.066 210.802 108.377 212.149 108.377C213.497 108.377 214.72 108.087 215.797 107.465Z" fill="#06C167"/>
<path d="M233.891 110.346C232.232 109.455 230.927 108.19 229.973 106.594C229.02 104.998 228.543 103.216 228.543 101.247C228.543 99.2774 229.02 97.4949 229.973 95.8988C230.927 94.3028 232.232 93.0591 233.891 92.1471C235.549 91.2351 237.414 90.7998 239.487 90.7998C241.56 90.7998 243.425 91.2558 245.084 92.1471C246.742 93.0384 248.048 94.2821 249.001 95.8781C249.955 97.4741 250.431 99.2567 250.431 101.247C250.431 103.236 249.955 105.04 249.001 106.615C248.048 108.19 246.742 109.434 245.084 110.346C243.425 111.237 241.56 111.693 239.487 111.693C237.414 111.693 235.549 111.237 233.891 110.346ZM243.135 107.465C244.213 106.864 245.063 106.014 245.685 104.915C246.307 103.817 246.618 102.594 246.618 101.247C246.618 99.8993 246.307 98.6763 245.685 97.5778C245.063 96.4792 244.213 95.6294 243.135 95.0283C242.057 94.4272 240.834 94.1162 239.487 94.1162C238.14 94.1162 236.917 94.4272 235.839 95.0283C234.761 95.6294 233.911 96.4999 233.29 97.5778C232.668 98.6556 232.357 99.8993 232.357 101.247C232.357 102.594 232.668 103.817 233.29 104.915C233.911 106.014 234.761 106.864 235.839 107.465C236.917 108.066 238.14 108.377 239.487 108.377C240.834 108.377 242.057 108.087 243.135 107.465Z" fill="#06C167"/>
<path d="M257.336 91.0894H266.207C268.363 91.0894 270.291 91.5039 271.99 92.3537C273.669 93.2036 274.975 94.3851 275.908 95.9189C276.841 97.4528 277.297 99.2353 277.297 101.246C277.297 103.257 276.841 105.039 275.908 106.573C274.975 108.107 273.669 109.309 271.99 110.138C270.311 110.988 268.384 111.403 266.207 111.403H257.336V91.0894ZM266.042 108.21C267.534 108.21 268.84 107.92 269.98 107.361C271.12 106.801 271.99 105.972 272.592 104.915C273.193 103.858 273.504 102.635 273.504 101.246C273.504 99.8572 273.193 98.6342 272.592 97.5771C271.99 96.52 271.12 95.7116 269.98 95.1313C268.84 94.5509 267.534 94.2814 266.042 94.2814H261.108V108.21H266.042Z" fill="#06C167"/>
<path d="M295.104 91.0894H303.975C306.131 91.0894 308.058 91.5039 309.758 92.3537C311.437 93.2036 312.743 94.3851 313.676 95.9189C314.608 97.4528 315.064 99.2353 315.064 101.246C315.064 103.257 314.608 105.039 313.676 106.573C312.743 108.107 311.437 109.309 309.758 110.138C308.079 110.988 306.151 111.403 303.975 111.403H295.104V91.0894ZM303.809 108.21C305.302 108.21 306.607 107.92 307.747 107.361C308.887 106.801 309.758 105.972 310.359 104.915C310.96 103.858 311.271 102.635 311.271 101.246C311.271 99.8572 310.96 98.6342 310.359 97.5771C309.758 96.52 308.887 95.7116 307.747 95.1313C306.607 94.5509 305.302 94.2814 303.809 94.2814H298.876V108.21H303.809Z" fill="#06C167"/>
<path d="M337.219 108.252V111.424H321.984V91.1104H336.805V94.2817H325.757V99.5673H335.561V102.676H325.757V108.273H337.219V108.252Z" fill="#06C167"/>
<path d="M344.332 91.0894H348.104V108.21H358.717V111.403H344.332V91.0894Z" fill="#06C167"/>
<path d="M364.602 91.0894H368.374V111.403H364.602V91.0894Z" fill="#06C167"/>
<path d="M395.196 91.0894L386.345 111.403H382.635L373.764 91.0894H377.847L384.604 106.76L391.424 91.0894H395.196Z" fill="#06C167"/>
<path d="M415.487 108.252V111.424H400.252V91.1104H415.072V94.2817H404.024V99.5673H413.829V102.676H404.024V108.273H415.487V108.252Z" fill="#06C167"/>
<path d="M435.886 111.403L431.741 105.454C431.575 105.474 431.305 105.474 430.953 105.474H426.372V111.403H422.6V91.0894H430.953C432.715 91.0894 434.249 91.3795 435.554 91.9599C436.86 92.5403 437.855 93.3694 438.56 94.4473C439.265 95.5251 439.596 96.8102 439.596 98.3026C439.596 99.8364 439.223 101.142 438.477 102.241C437.731 103.339 436.653 104.169 435.264 104.707L439.928 111.382H435.886V111.403ZM434.518 95.3385C433.668 94.6338 432.425 94.3021 430.766 94.3021H426.351V102.407H430.766C432.404 102.407 433.668 102.054 434.518 101.35C435.368 100.645 435.803 99.6499 435.803 98.3441C435.803 97.0175 435.368 96.0225 434.518 95.3385Z" fill="#06C167"/>
<path d="M455.18 104.231V111.403H451.408V104.293L443.428 91.0894H447.47L453.419 100.976L459.43 91.0894H463.14L455.18 104.231Z" fill="#06C167"/>
<path d="M75.3674 17.9615C74.3518 16.9459 73.8543 15.7229 73.5848 14.4378C73.3361 13.1527 73.3776 11.7847 73.8336 10.4374C74.2896 9.1108 75.2016 7.80495 76.5075 7.0173C77.8133 6.22964 79.3886 6.16746 80.653 6.70638C79.6788 7.78422 79.0155 8.53042 78.5802 9.3388C78.1657 10.1265 77.8962 10.8727 77.5853 11.7225C77.2951 12.5723 77.0256 13.5258 76.694 14.5415C76.3416 15.5778 75.9685 16.6764 75.3674 17.9615Z" fill="white"/>
<path d="M157.904 114.47H4.72592C2.11423 114.47 0 112.356 0 109.744V109.288C0 106.676 2.11423 104.562 4.72592 104.562H157.904C160.515 104.562 162.63 106.676 162.63 109.288V109.744C162.63 112.356 160.515 114.47 157.904 114.47Z" fill="#F55539"/>
</svg>
