<svg width="14" height="24" viewBox="0 0 14 24" fill="none" xmlns="http://www.w3.org/2000/svg">
<path d="M3.03269 23.5077L13.3332 13.6377C13.5419 13.4378 13.7098 13.1874 13.825 12.9044C13.9403 12.6214 14 12.3126 14 12C14 11.6874 13.9403 11.3786 13.825 11.0956C13.7098 10.8126 13.5419 10.5622 13.3332 10.3623L3.03269 0.492328C2.76256 0.233656 2.43406 0.0689095 2.0856 0.017363C1.73715 -0.0341834 1.38315 0.0296007 1.06502 0.201253C0.746891 0.372906 0.477785 0.645329 0.28918 0.986656C0.100575 1.32798 0.000270449 1.7241 0 2.12867V21.8713C0.000270449 22.2759 0.100575 22.672 0.28918 23.0133C0.477785 23.3547 0.746891 23.6271 1.06502 23.7987C1.38315 23.9704 1.73715 24.0342 2.0856 23.9826C2.43406 23.9311 2.76256 23.7663 3.03269 23.5077Z" fill="white"/>
</svg>
