<svg width="25" height="25" viewBox="0 0 25 25" fill="none" xmlns="http://www.w3.org/2000/svg">
<path d="M17.41 2.67241C18.7669 2.67631 20.0671 3.19711 21.0266 4.12107C21.9861 5.04503 22.5269 6.29707 22.531 7.60374V17.4653C22.5269 18.772 21.9861 20.0241 21.0266 20.948C20.0671 21.872 18.7669 22.3928 17.41 22.3967H7.16907C5.81214 22.3928 4.51195 21.872 3.55245 20.948C2.59295 20.0241 2.05212 18.772 2.04807 17.4653V7.60374C2.05212 6.29707 2.59295 5.04503 3.55245 4.12107C4.51195 3.19711 5.81214 2.67631 7.16907 2.67241H17.41ZM17.41 0.700195H7.16907C3.226 0.700195 0 3.80671 0 7.60374V17.4653C0 21.2624 3.226 24.3689 7.16907 24.3689H17.41C21.353 24.3689 24.579 21.2624 24.579 17.4653V7.60374C24.579 3.80671 21.353 0.700195 17.41 0.700195Z" fill="#292E36"/>
<path d="M18.9459 7.6041C18.6421 7.6041 18.3451 7.51734 18.0925 7.35479C17.8398 7.19224 17.6429 6.96121 17.5267 6.6909C17.4104 6.4206 17.38 6.12316 17.4393 5.83621C17.4985 5.54925 17.6448 5.28567 17.8597 5.07878C18.0745 4.8719 18.3482 4.73101 18.6462 4.67393C18.9442 4.61685 19.2531 4.64615 19.5338 4.75811C19.8145 4.87008 20.0544 5.05968 20.2232 5.30295C20.392 5.54622 20.4821 5.83223 20.4821 6.1248C20.4825 6.31918 20.4431 6.51173 20.3661 6.6914C20.289 6.87106 20.1759 7.0343 20.0331 7.17175C19.8904 7.3092 19.7209 7.41815 19.5343 7.49234C19.3477 7.56654 19.1478 7.60451 18.9459 7.6041ZM12.2893 8.58994C13.0995 8.58994 13.8916 8.82131 14.5653 9.25479C15.239 9.68826 15.7641 10.3044 16.0741 11.0252C16.3842 11.7461 16.4653 12.5393 16.3073 13.3045C16.1492 14.0698 15.759 14.7727 15.1861 15.3244C14.6132 15.8761 13.8832 16.2518 13.0885 16.4041C12.2938 16.5563 11.4701 16.4782 10.7216 16.1796C9.97298 15.881 9.33317 15.3753 8.88302 14.7266C8.43287 14.0779 8.1926 13.3151 8.1926 12.5349C8.19376 11.489 8.62575 10.4862 9.39378 9.74663C10.1618 9.00705 11.2031 8.59106 12.2893 8.58994ZM12.2893 6.61772C11.074 6.61772 9.88595 6.96476 8.87545 7.61495C7.86495 8.26513 7.07736 9.18927 6.61228 10.2705C6.14719 11.3517 6.02551 12.5415 6.2626 13.6893C6.4997 14.8371 7.08493 15.8914 7.94429 16.719C8.80365 17.5465 9.89854 18.1101 11.0905 18.3384C12.2825 18.5667 13.518 18.4495 14.6408 18.0017C15.7636 17.5538 16.7233 16.7954 17.3985 15.8223C18.0737 14.8492 18.434 13.7052 18.434 12.5349C18.434 10.9656 17.7867 9.46051 16.6343 8.35082C15.4819 7.24114 13.919 6.61772 12.2893 6.61772Z" fill="#292E36"/>
</svg>
