<svg width="26" height="26" viewBox="0 0 26 26" fill="none" xmlns="http://www.w3.org/2000/svg">
<path d="M12.9805 0.0498047C6.08461 0.0498047 0.493164 5.63875 0.493164 12.5316C0.493164 17.6413 3.57041 22.0323 7.96886 23.9658C7.93541 23.0966 7.96329 22.049 8.18628 21.1017C8.42599 20.0875 9.7918 14.298 9.7918 14.298C9.7918 14.298 9.39042 13.5012 9.39042 12.3254C9.39042 10.4754 10.4608 9.09354 11.7987 9.09354C12.9359 9.09354 13.4823 9.94609 13.4823 10.9658C13.4823 12.1081 12.752 13.8132 12.3785 15.3957C12.0663 16.7219 13.0419 17.7974 14.3519 17.7974C16.7156 17.7974 18.31 14.7605 18.31 11.1608C18.31 8.42487 16.4647 6.37986 13.1143 6.37986C9.32909 6.37986 6.96541 9.20498 6.96541 12.3589C6.96541 13.4454 7.28875 14.2144 7.79047 14.8051C8.01903 15.0781 8.05248 15.1896 7.96886 15.5016C7.90754 15.7301 7.77375 16.2817 7.71242 16.5046C7.6288 16.8222 7.37237 16.9337 7.08806 16.8166C5.34317 16.1034 4.52926 14.1977 4.52926 12.0468C4.52926 8.50288 7.52288 4.25127 13.4544 4.25127C18.2208 4.25127 21.3593 7.70048 21.3593 11.4004C21.3593 16.2984 18.6333 19.9538 14.6195 19.9538C13.2704 19.9538 12.005 19.2239 11.5701 18.3992C11.5701 18.3992 10.8454 21.2744 10.6893 21.8317C10.4273 22.7957 9.90886 23.7541 9.43501 24.5063C10.5845 24.8453 11.7765 25.0179 12.975 25.019C19.8709 25.019 25.4623 19.43 25.4623 12.5372C25.4623 5.64433 19.8765 0.0498047 12.9805 0.0498047Z" fill="#292E36"/>
</svg>
