<svg width="27" height="22" viewBox="0 0 27 22" fill="none" xmlns="http://www.w3.org/2000/svg">
<path d="M26.4929 2.4968C25.505 2.92603 24.4598 3.20882 23.3903 3.33622C24.5143 2.67806 25.3596 1.63246 25.7676 0.395517C24.7049 1.0169 23.5442 1.45289 22.3353 1.68482C21.8262 1.15128 21.2139 0.726843 20.5357 0.437294C19.8575 0.147744 19.1275 -0.000865391 18.39 0.000497572C15.4043 0.000497572 12.9881 2.38159 12.9881 5.31681C12.986 5.72509 13.0328 6.13215 13.1275 6.5293C10.9865 6.42893 8.89008 5.88277 6.97229 4.92577C5.0545 3.96876 3.35758 2.62198 1.99011 0.971588C1.51037 1.78035 1.25665 2.70312 1.25548 3.64346C1.25548 5.48689 2.21725 7.11634 3.66949 8.07098C2.80908 8.05056 1.96629 7.82283 1.21269 7.40712V7.47296C1.21269 10.0516 3.07806 12.1967 5.54694 12.685C5.08267 12.8088 4.60425 12.8715 4.12377 12.8716C3.78283 12.8722 3.44267 12.8391 3.10824 12.7728C3.79458 14.8851 5.79218 16.4213 8.15846 16.4652C6.23569 17.947 3.87502 18.7479 1.4475 18.742C1.01661 18.7414 0.586123 18.7157 0.158203 18.6652C2.62773 20.2421 5.49835 21.0762 8.42839 21.0682C18.3785 21.0682 23.8144 12.9648 23.8144 5.93677C23.8144 5.70634 23.8084 5.47591 23.7974 5.25097C24.8525 4.50047 25.7653 3.56781 26.4929 2.4968Z" fill="#292E36"/>
</svg>
